<svg width="20" height="20" viewBox="0 0 20 20" fill="none" xmlns="http://www.w3.org/2000/svg">
<g clip-path="url(#clip0_42_6819)">
<path fill-rule="evenodd" clip-rule="evenodd" d="M10.5 1.25C10.5 0.973858 10.2761 0.75 10 0.75C9.72386 0.75 9.5 0.973858 9.5 1.25V7.5H10.5V1.25ZM12.5 9.5V10.5H18.75C19.0261 10.5 19.25 10.2761 19.25 10C19.25 9.72386 19.0261 9.5 18.75 9.5H12.5ZM10.5 12.5H9.5V18.75C9.5 19.0261 9.72386 19.25 10 19.25C10.2761 19.25 10.5 19.0261 10.5 18.75V12.5ZM7.5 10.5V9.5H1.25C0.973858 9.5 0.75 9.72386 0.75 10C0.75 10.2761 0.973858 10.5 1.25 10.5H7.5Z" fill="#232323"/>
</g>
<defs>
<clipPath id="clip0_42_6819">
<rect width="20" height="20" fill="white"/>
</clipPath>
</defs>
</svg>
