<svg width="20" height="20" viewBox="0 0 20 20" fill="none" xmlns="http://www.w3.org/2000/svg">
<path d="M16 16L12.9626 12.9626M12.9626 12.9626C13.4501 12.475 13.8368 11.8963 14.1007 11.2593C14.3645 10.6223 14.5003 9.93961 14.5003 9.25015C14.5003 8.56069 14.3645 7.87798 14.1007 7.24101C13.8368 6.60403 13.4501 6.02526 12.9626 5.53773C12.475 5.05021 11.8963 4.66349 11.2593 4.39964C10.6223 4.1358 9.93961 4 9.25015 4C8.56069 4 7.87798 4.1358 7.24101 4.39964C6.60403 4.66349 6.02526 5.05021 5.53773 5.53773C4.55314 6.52233 4 7.85772 4 9.25015C4 10.6426 4.55314 11.978 5.53773 12.9626C6.52233 13.9472 7.85772 14.5003 9.25015 14.5003C10.6426 14.5003 11.978 13.9472 12.9626 12.9626ZM7.0002 9.25015H9.25015M9.25015 9.25015H11.5001M9.25015 9.25015V7.0002M9.25015 9.25015V11.5001" stroke="black" stroke-width="1.2" stroke-linecap="round" stroke-linejoin="round"/>
</svg>
