<svg width="20" height="20" viewBox="0 0 20 20" fill="none" xmlns="http://www.w3.org/2000/svg">
<path d="M12.4 10L13 10.6L6.93333 16.6667H6.33333V16.0667L12.4 10ZM14.8 6C14.6667 6 14.4667 6.06667 14.3333 6.2L13.1333 7.4L15.6 9.93333L16.8 8.66667C17.0667 8.4 17.0667 8 16.8 7.73333L15.2667 6.2C15.1333 6.06667 14.9333 6 14.8 6ZM12.4 8.13333L5 15.4667V18H7.53333L14.8667 10.6L12.4 8.13333Z" fill="black"/>
<path fill-rule="evenodd" clip-rule="evenodd" d="M2.76386 3.91229C2.76322 3.44704 2.93245 2.99755 3.23978 2.64824C3.54711 2.29893 3.97138 2.07383 4.43293 2.01522C4.89449 1.95661 5.36156 2.06851 5.74644 2.32991C6.13133 2.59131 6.40754 2.98423 6.52321 3.43488C6.54854 3.53298 6.53385 3.63713 6.48239 3.72441C6.43092 3.81168 6.3469 3.87494 6.24879 3.90026C6.15069 3.92559 6.04654 3.9109 5.95927 3.85944C5.87199 3.80798 5.80873 3.72395 5.78341 3.62585C5.71407 3.35539 5.54835 3.11955 5.3174 2.96265C5.08645 2.80575 4.80616 2.73858 4.52917 2.77375C4.25219 2.80892 3.99758 2.94402 3.81318 3.15367C3.62877 3.36332 3.52727 3.63309 3.52772 3.91229V5.05809H6.73595C7.07205 5.05809 7.34704 5.33308 7.34704 5.66918V8.3427C7.34704 8.84685 6.93455 9.25933 6.4304 9.25933H2.91663C2.41249 9.25933 2 8.84685 2 8.3427V5.66918C2 5.33308 2.27499 5.05809 2.61109 5.05809H2.76386V3.91229ZM4.67352 5.91743C4.52164 5.91728 4.37424 5.96885 4.25558 6.06366C4.13693 6.15847 4.05411 6.29087 4.02076 6.43904C3.98741 6.58721 4.00551 6.74232 4.0721 6.87883C4.13868 7.01534 4.24977 7.1251 4.38707 7.19003V8.11354C4.38707 8.18951 4.41725 8.26237 4.47097 8.31609C4.52469 8.36981 4.59755 8.39999 4.67352 8.39999C4.74949 8.39999 4.82235 8.36981 4.87607 8.31609C4.92979 8.26237 4.95997 8.18951 4.95997 8.11354V7.19003C5.09727 7.1251 5.20836 7.01534 5.27494 6.87883C5.34152 6.74232 5.35963 6.58721 5.32628 6.43904C5.29293 6.29087 5.2101 6.15847 5.09145 6.06366C4.9728 5.96885 4.8254 5.91728 4.67352 5.91743Z" fill="black"/>
</svg>
