<svg width="16" height="16" viewBox="0 0 16 16" fill="none" xmlns="http://www.w3.org/2000/svg">
<path d="M11.3333 1.33325C11.1564 1.33325 10.9869 1.40349 10.8618 1.52851C10.7368 1.65354 10.6666 1.82311 10.6666 1.99992C10.6666 2.17673 10.7368 2.3463 10.8618 2.47132C10.9869 2.59635 11.1564 2.66659 11.3333 2.66659H12.3906L9.52858 5.52858C9.40715 5.65432 9.33995 5.82272 9.34147 5.99752C9.34299 6.17232 9.4131 6.33953 9.53671 6.46313C9.66031 6.58674 9.82752 6.65685 10.0023 6.65837C10.1771 6.65989 10.3455 6.59269 10.4713 6.47125L13.3333 3.60925V4.66658C13.3333 4.8434 13.4035 5.01297 13.5285 5.13799C13.6535 5.26301 13.8231 5.33325 13.9999 5.33325C14.1767 5.33325 14.3463 5.26301 14.4713 5.13799C14.5963 5.01297 14.6666 4.8434 14.6666 4.66658V1.99992C14.6666 1.82311 14.5963 1.65354 14.4713 1.52851C14.3463 1.40349 14.1767 1.33325 13.9999 1.33325H11.3333ZM2.66659 12.3906V11.3333C2.66659 11.1564 2.59635 10.9869 2.47132 10.8618C2.3463 10.7368 2.17673 10.6666 1.99992 10.6666C1.82311 10.6666 1.65354 10.7368 1.52851 10.8618C1.40349 10.9869 1.33325 11.1564 1.33325 11.3333V13.9999C1.33325 14.1767 1.40349 14.3463 1.52851 14.4713C1.65354 14.5963 1.82311 14.6666 1.99992 14.6666H4.66658C4.8434 14.6666 5.01297 14.5963 5.13799 14.4713C5.26301 14.3463 5.33325 14.1767 5.33325 13.9999C5.33325 13.8231 5.26301 13.6535 5.13799 13.5285C5.01297 13.4035 4.8434 13.3333 4.66658 13.3333H3.60925L6.47125 10.4713C6.59269 10.3455 6.65989 10.1771 6.65837 10.0023C6.65685 9.82752 6.58674 9.66031 6.46313 9.53671C6.33953 9.4131 6.17232 9.34299 5.99752 9.34147C5.82272 9.33995 5.65432 9.40715 5.52858 9.52858L2.66659 12.3906Z" fill="black"/>
</svg>
