<svg width="20" height="20" viewBox="0 0 20 20" fill="none" xmlns="http://www.w3.org/2000/svg">
<path d="M5 5.40475C5 5.03219 5.148 4.67488 5.41144 4.41144C5.67488 4.148 6.03219 4 6.40475 4H13.4285C13.8011 4 14.1584 4.148 14.4218 4.41144C14.6853 4.67488 14.8333 5.03219 14.8333 5.40475V6.10713C14.8333 6.29341 14.7593 6.47206 14.6275 6.60378C14.4958 6.7355 14.3172 6.8095 14.1309 6.8095C13.9446 6.8095 13.7659 6.7355 13.6342 6.60378C13.5025 6.47206 13.4285 6.29341 13.4285 6.10713V5.40475H10.619V13.8333H11.3214C11.5077 13.8333 11.6863 13.9073 11.818 14.039C11.9498 14.1707 12.0238 14.3493 12.0238 14.5356C12.0238 14.7219 11.9498 14.9006 11.818 15.0323C11.6863 15.164 11.5077 15.238 11.3214 15.238H8.51188C8.32559 15.238 8.14694 15.164 8.01522 15.0323C7.8835 14.9006 7.8095 14.7219 7.8095 14.5356C7.8095 14.3493 7.8835 14.1707 8.01522 14.039C8.14694 13.9073 8.32559 13.8333 8.51188 13.8333H9.21425V5.40475H6.40475V6.10713C6.40475 6.29341 6.33075 6.47206 6.19903 6.60378C6.06731 6.7355 5.88866 6.8095 5.70238 6.8095C5.51609 6.8095 5.33744 6.7355 5.20572 6.60378C5.074 6.47206 5 6.29341 5 6.10713V5.40475Z" fill="black"/>
</svg>
