<svg width="20" height="20" viewBox="0 0 20 20" fill="none" xmlns="http://www.w3.org/2000/svg">
<path fill-rule="evenodd" clip-rule="evenodd" d="M8.74997 1.66659C9.2333 1.66659 9.7083 1.71492 10.1658 1.80825C10.3824 1.85223 10.5726 1.98046 10.6947 2.16471C10.8168 2.34896 10.8606 2.57416 10.8166 2.79075C10.7727 3.00735 10.6444 3.1976 10.4602 3.31965C10.2759 3.44171 10.0507 3.48557 9.83413 3.44159C8.78454 3.22747 7.69503 3.32937 6.70335 3.73441C5.71166 4.13944 4.86234 4.82942 4.26276 5.71711C3.66318 6.6048 3.34027 7.65034 3.33484 8.72153C3.32942 9.79273 3.64174 10.8415 4.2323 11.7352C4.82287 12.6289 5.66517 13.3274 6.6527 13.7425C7.64023 14.1575 8.72866 14.2705 9.78036 14.067C10.8321 13.8635 11.7998 13.3528 12.5613 12.5993C13.3227 11.8459 13.8437 10.8836 14.0583 9.83408C14.0801 9.72684 14.1228 9.62493 14.1839 9.53418C14.2451 9.44343 14.3235 9.36562 14.4148 9.30519C14.506 9.24475 14.6082 9.20288 14.7157 9.18196C14.8231 9.16103 14.9336 9.16147 15.0408 9.18325C15.148 9.20503 15.25 9.24772 15.3407 9.30888C15.4315 9.37004 15.5093 9.44848 15.5697 9.53971C15.6301 9.63094 15.672 9.73319 15.6929 9.8406C15.7139 9.94802 15.7134 10.0585 15.6916 10.1658C15.4887 11.1596 15.0746 12.0983 14.4775 12.9183L14.3133 13.1349L17.3566 16.1783C17.5077 16.3279 17.5958 16.5296 17.603 16.742C17.6102 16.9545 17.536 17.1617 17.3954 17.3212C17.2549 17.4807 17.0586 17.5805 16.8469 17.6001C16.6352 17.6197 16.4241 17.5576 16.2566 17.4266L16.1783 17.3566L13.135 14.3133C12.2478 15.0124 11.2064 15.4892 10.0975 15.704C8.98859 15.9188 7.8444 15.8653 6.7604 15.5479C5.67639 15.2306 4.68399 14.6586 3.866 13.8797C3.04801 13.1008 2.42814 12.1376 2.05812 11.0704C1.68809 10.0032 1.57864 8.86304 1.73889 7.74495C1.89914 6.62687 2.32445 5.56333 2.97933 4.64305C3.63421 3.72277 4.49967 2.97244 5.50351 2.45466C6.50735 1.93689 7.62046 1.66668 8.74997 1.66659ZM15.8333 0.833252C15.9892 0.833252 16.142 0.876984 16.2743 0.959478C16.4065 1.04197 16.513 1.15992 16.5816 1.29992L16.6216 1.39742L16.73 1.71242C16.8443 2.04757 17.0285 2.35461 17.2705 2.6132C17.5124 2.8718 17.8065 3.07604 18.1333 3.21242L18.2875 3.27075L18.6025 3.37825C18.7585 3.43147 18.8952 3.52975 18.9953 3.66067C19.0954 3.79158 19.1545 3.94925 19.165 4.11373C19.1756 4.27822 19.1371 4.44213 19.0544 4.58474C18.9718 4.72735 18.8487 4.84225 18.7008 4.91492L18.6025 4.95492L18.2875 5.06325C17.9523 5.17759 17.6453 5.36182 17.3867 5.60375C17.1281 5.84567 16.9238 6.13978 16.7875 6.46659L16.7291 6.62075L16.6216 6.93575C16.5683 7.0917 16.47 7.22834 16.339 7.32839C16.208 7.42844 16.0503 7.48741 15.8859 7.49785C15.7214 7.50829 15.5575 7.46972 15.415 7.38702C15.2724 7.30432 15.1576 7.18121 15.085 7.03325L15.045 6.93575L14.9366 6.62075C14.8223 6.2856 14.6381 5.97856 14.3961 5.71997C14.1542 5.46137 13.8601 5.25713 13.5333 5.12075L13.3791 5.06242L13.0641 4.95492C12.9081 4.9017 12.7714 4.80342 12.6713 4.6725C12.5712 4.54159 12.5121 4.38392 12.5016 4.21944C12.491 4.05495 12.5295 3.89104 12.6122 3.74843C12.6948 3.60582 12.8179 3.49092 12.9658 3.41825L13.0641 3.37825L13.3791 3.26992C13.7143 3.15558 14.0213 2.97135 14.2799 2.72942C14.5385 2.4875 14.7428 2.19339 14.8791 1.86659L14.9375 1.71242L15.045 1.39742C15.1011 1.23291 15.2073 1.09007 15.3487 0.98891C15.49 0.887747 15.6595 0.833321 15.8333 0.833252ZM15.8333 3.49659C15.6362 3.74467 15.4114 3.96945 15.1633 4.16659C15.4122 4.36381 15.6355 4.58714 15.8333 4.83659C16.0305 4.5877 16.2539 4.36436 16.5033 4.16659C16.2552 3.96945 16.0304 3.74467 15.8333 3.49659Z" fill="black"/>
</svg>
