<svg width="20" height="20" viewBox="0 0 20 20" fill="none" xmlns="http://www.w3.org/2000/svg">
<path d="M13.6 4.86667V6.2H16C16.2122 6.2 16.4157 6.28429 16.5657 6.43431C16.7157 6.58434 16.8 6.78783 16.8 7C16.8 7.21217 16.7157 7.41566 16.5657 7.56569C16.4157 7.71571 16.2122 7.8 16 7.8H4.8C4.58783 7.8 4.38434 7.71571 4.23431 7.56569C4.08429 7.41566 4 7.21217 4 7C4 6.78783 4.08429 6.58434 4.23431 6.43431C4.38434 6.28429 4.58783 6.2 4.8 6.2H7.2V4.86667C7.2 3.83627 8.03627 3 9.06667 3H11.7333C12.7637 3 13.6 3.83627 13.6 4.86667ZM6.6624 10.12L7.3664 17.16C7.37302 17.2258 7.40386 17.2868 7.45294 17.3312C7.50203 17.3755 7.56585 17.4001 7.632 17.4H13.168C13.2342 17.4001 13.298 17.3755 13.3471 17.3312C13.3961 17.2868 13.427 17.2258 13.4336 17.16L14.1376 10.12C14.1641 9.91336 14.2701 9.72519 14.4331 9.5955C14.5961 9.46581 14.8033 9.40483 15.0106 9.42553C15.2179 9.44623 15.409 9.54698 15.5431 9.70635C15.6773 9.86572 15.744 10.0711 15.7291 10.2789L15.0251 17.3189C14.979 17.7795 14.7635 18.2066 14.4204 18.5172C14.0772 18.8279 13.6309 18.9999 13.168 19H7.632C7.16929 18.9999 6.72309 18.828 6.37996 18.5176C6.03682 18.2072 5.8212 17.7804 5.77493 17.32L5.07093 10.28C5.05757 10.1741 5.06555 10.0666 5.09439 9.96377C5.12323 9.86098 5.17235 9.765 5.23886 9.6815C5.30537 9.59799 5.38793 9.52863 5.48166 9.47752C5.57539 9.42641 5.6784 9.39458 5.78462 9.3839C5.89084 9.37322 5.99813 9.38391 6.10016 9.41534C6.20218 9.44677 6.29689 9.4983 6.37869 9.5669C6.46049 9.6355 6.52774 9.71978 6.57646 9.81477C6.62519 9.90976 6.65441 10.0135 6.6624 10.12ZM8.8 4.86667V6.2H12V4.86667C12 4.79594 11.9719 4.72811 11.9219 4.6781C11.8719 4.6281 11.8041 4.6 11.7333 4.6H9.06667C8.99594 4.6 8.92811 4.6281 8.8781 4.6781C8.8281 4.72811 8.8 4.79594 8.8 4.86667Z" fill="black"/>
</svg>
