<svg width="20" height="20" viewBox="0 0 20 20" fill="none" xmlns="http://www.w3.org/2000/svg">
<path d="M10.973 6.6288L14.1773 4.13616C14.3022 4.03932 14.458 3.99137 14.6157 4.00128C14.7734 4.01119 14.922 4.0783 15.0337 4.19001L16.9769 6.13248C17.0885 6.24428 17.1555 6.39296 17.1653 6.55063C17.175 6.7083 17.127 6.86413 17.0301 6.98888L14.5387 10.1933C14.7144 10.9098 14.7249 11.6568 14.5696 12.378C14.4142 13.0992 14.097 13.7757 13.6419 14.3564C13.1868 14.937 12.6057 15.4066 11.9425 15.7298C11.2793 16.053 10.5513 16.2212 9.81358 16.2218C7.54152 16.2218 4.62197 15.2473 3 14.2741C5.58218 12.3278 4.97686 11.1535 5.27076 10.057C5.95718 7.49429 8.4122 5.99688 10.973 6.6288ZM13.186 7.84788C13.2284 7.88897 13.2703 7.93071 13.3119 7.97309L14.0489 8.70947L15.6546 6.64502L14.5218 5.51224L12.4574 7.11799L13.186 7.84788Z" fill="black"/>
</svg>
