<svg width="20" height="20" viewBox="0 0 20 20" fill="none" xmlns="http://www.w3.org/2000/svg">
<path fill-rule="evenodd" clip-rule="evenodd" d="M6.28571 6.16111C6.28463 5.39202 6.56948 4.64899 7.08677 4.07157C7.60405 3.49415 8.31818 3.12205 9.09506 3.02516C9.87193 2.92827 10.6581 3.11324 11.3059 3.54535C11.9537 3.97746 12.4187 4.62698 12.6134 5.37192C12.656 5.53409 12.6313 5.70625 12.5446 5.85052C12.458 5.99479 12.3166 6.09936 12.1515 6.14122C11.9863 6.18308 11.811 6.15881 11.6641 6.07374C11.5172 5.98867 11.4108 5.84977 11.3681 5.6876C11.2514 5.24052 10.9725 4.85067 10.5838 4.59131C10.195 4.33194 9.72325 4.2209 9.25704 4.27904C8.79083 4.33719 8.36228 4.56051 8.05189 4.90707C7.74151 5.25363 7.57066 5.69957 7.57143 6.16111V8.05516H12.9714C13.5371 8.05516 14 8.50973 14 9.06532V13.4848C14 14.3181 13.3057 15 12.4571 15H6.54286C5.69429 15 5 14.3181 5 13.4848V9.06532C5 8.50973 5.46286 8.05516 6.02857 8.05516H6.28571V6.16111ZM9.5 9.47569C9.24436 9.47543 8.99625 9.56069 8.79654 9.71741C8.59683 9.87414 8.45743 10.093 8.40129 10.3379C8.34515 10.5829 8.37563 10.8393 8.4877 11.0649C8.59977 11.2906 8.78676 11.472 9.01786 11.5793V13.106C9.01786 13.2315 9.06865 13.352 9.15907 13.4408C9.24949 13.5296 9.37213 13.5795 9.5 13.5795C9.62787 13.5795 9.75051 13.5296 9.84093 13.4408C9.93135 13.352 9.98214 13.2315 9.98214 13.106V11.5793C10.2132 11.472 10.4002 11.2906 10.5123 11.0649C10.6244 10.8393 10.6548 10.5829 10.5987 10.3379C10.5426 10.093 10.4032 9.87414 10.2035 9.71741C10.0037 9.56069 9.75564 9.47543 9.5 9.47569Z" fill="black"/>
</svg>
