<svg width="20" height="20" viewBox="0 0 20 20" fill="none" xmlns="http://www.w3.org/2000/svg">
<path d="M17 12.5694L17 10.2222C17 6.23339 13.8661 3 10 3C6.1339 3 3 6.23339 3 10.2222L3 12.5694L6.5 12.5694L6.5 10.2222C6.5 9.2645 6.86875 8.346 7.52513 7.66878C8.1815 6.99157 9.07174 6.61111 10 6.61111C10.9283 6.61111 11.8185 6.99157 12.4749 7.66878C13.1313 8.346 13.5 9.2645 13.5 10.2222L13.5 12.5694L17 12.5694ZM13.5 13.6528L13.5 14.9167C13.5 15.204 13.6106 15.4795 13.8075 15.6827C14.0045 15.8859 14.2715 16 14.55 16L15.95 16C16.2285 16 16.4955 15.8859 16.6925 15.6827C16.8894 15.4795 17 15.204 17 14.9167L17 13.6528L13.5 13.6528ZM6.5 13.6528L3 13.6528L3 14.9167C3 15.204 3.11063 15.4795 3.30754 15.6827C3.50445 15.8859 3.77152 16 4.05 16L5.45 16C5.72848 16 5.99555 15.8859 6.19246 15.6827C6.38938 15.4795 6.5 15.204 6.5 14.9167L6.5 13.6528Z" fill="black"/>
</svg>
