<svg width="20" height="20" viewBox="0 0 20 20" fill="none" xmlns="http://www.w3.org/2000/svg">
<path d="M16.6667 10.9523L17.2001 9.35039C17.2478 9.20714 17.2607 9.0546 17.2379 8.90535C17.2151 8.7561 17.1571 8.61443 17.0687 8.492C16.9803 8.36958 16.8641 8.26993 16.7296 8.20126C16.5952 8.13259 16.4463 8.09687 16.2953 8.09706L3.70482 8.11325C3.55385 8.11342 3.40509 8.14947 3.27079 8.21844C3.1365 8.2874 3.02052 8.38731 2.93243 8.50991C2.84433 8.63251 2.78665 8.7743 2.76413 8.92358C2.74162 9.07286 2.75491 9.22536 2.80292 9.36849L3.33339 10.9523M16.6667 6.19039L16.9582 4.44182C16.9808 4.30545 16.9735 4.16577 16.9368 4.0325C16.9 3.89922 16.8347 3.77555 16.7454 3.67006C16.656 3.56457 16.5448 3.4798 16.4193 3.42164C16.2939 3.36348 16.1574 3.33332 16.0191 3.33325H3.98101C3.84277 3.33332 3.70619 3.36348 3.58077 3.42164C3.45536 3.4798 3.34411 3.56457 3.25475 3.67006C3.16539 3.77555 3.10007 3.89922 3.06333 4.0325C3.02658 4.16577 3.01929 4.30545 3.04197 4.44182L3.33339 6.19039M16.8477 15.9456L17.3239 14.0409C17.359 13.9004 17.3618 13.7538 17.3318 13.6122C17.3018 13.4706 17.2399 13.3377 17.1509 13.2235C17.0618 13.1094 16.9479 13.0171 16.8178 12.9536C16.6877 12.8901 16.5448 12.8571 16.4001 12.8571H3.60006C3.45529 12.8571 3.31243 12.8901 3.18234 12.9536C3.05224 13.0171 2.93833 13.1094 2.84927 13.2235C2.7602 13.3377 2.69833 13.4706 2.66835 13.6122C2.63837 13.7538 2.64107 13.9004 2.67625 14.0409L3.15244 15.9456C3.20403 16.1516 3.32296 16.3344 3.49034 16.465C3.65772 16.5956 3.86394 16.6666 4.07625 16.6666H15.9239C16.1362 16.6666 16.3424 16.5956 16.5098 16.465C16.6772 16.3344 16.7961 16.1516 16.8477 15.9456Z" stroke="black" stroke-linecap="round" stroke-linejoin="round"/>
</svg>
