<svg width="20" height="20" viewBox="0 0 20 20" fill="none" xmlns="http://www.w3.org/2000/svg">
<path d="M5.83333 5.83333C5.83333 6.27536 5.65774 6.69928 5.34518 7.01184C5.03262 7.3244 4.60869 7.5 4.16667 7.5C3.72464 7.5 3.30072 7.3244 2.98816 7.01184C2.67559 6.69928 2.5 6.27536 2.5 5.83333C2.5 5.39131 2.67559 4.96738 2.98816 4.65482C3.30072 4.34226 3.72464 4.16667 4.16667 4.16667C4.60869 4.16667 5.03262 4.34226 5.34518 4.65482C5.65774 4.96738 5.83333 5.39131 5.83333 5.83333ZM5.83333 5.83333L12.5 5M12.5 5C12.5 5.66304 12.7634 6.29893 13.2322 6.76777C13.7011 7.23661 14.337 7.5 15 7.5C15.663 7.5 16.2989 7.23661 16.7678 6.76777C17.2366 6.29893 17.5 5.66304 17.5 5C17.5 4.33696 17.2366 3.70107 16.7678 3.23223C16.2989 2.76339 15.663 2.5 15 2.5C14.337 2.5 13.7011 2.76339 13.2322 3.23223C12.7634 3.70107 12.5 4.33696 12.5 5ZM7.5 14.1667L11.6667 12.9167M5.41667 7.08333L11.925 11.5583M11.6667 12.5C11.6667 12.942 11.8423 13.366 12.1548 13.6785C12.4674 13.9911 12.8913 14.1667 13.3333 14.1667C13.7754 14.1667 14.1993 13.9911 14.5118 13.6785C14.8244 13.366 15 12.942 15 12.5C15 12.058 14.8244 11.634 14.5118 11.3215C14.1993 11.0089 13.7754 10.8333 13.3333 10.8333C12.8913 10.8333 12.4674 11.0089 12.1548 11.3215C11.8423 11.634 11.6667 12.058 11.6667 12.5ZM2.5 15C2.5 15.663 2.76339 16.2989 3.23223 16.7678C3.70107 17.2366 4.33696 17.5 5 17.5C5.66304 17.5 6.29893 17.2366 6.76777 16.7678C7.23661 16.2989 7.5 15.663 7.5 15C7.5 14.337 7.23661 13.7011 6.76777 13.2322C6.29893 12.7634 5.66304 12.5 5 12.5C4.33696 12.5 3.70107 12.7634 3.23223 13.2322C2.76339 13.7011 2.5 14.337 2.5 15Z" stroke="black" stroke-linecap="round" stroke-linejoin="round"/>
</svg>
