<svg width="20" height="20" viewBox="0 0 20 20" fill="none" xmlns="http://www.w3.org/2000/svg">
<path d="M6.89062 7.19203C6.89062 7.56263 7.03785 7.91806 7.2999 8.18011C7.56196 8.44217 7.91738 8.58939 8.28798 8.58939C8.65858 8.58939 9.014 8.44217 9.27606 8.18011C9.53811 7.91806 9.68533 7.56263 9.68533 7.19203C9.68533 6.82143 9.53811 6.46601 9.27606 6.20395C9.014 5.9419 8.65858 5.79468 8.28798 5.79468C7.91738 5.79468 7.56196 5.9419 7.2999 6.20395C7.03785 6.46601 6.89062 6.82143 6.89062 7.19203Z" stroke="black" stroke-width="1.2" stroke-linecap="round" stroke-linejoin="round"/>
<path d="M14.5762 7.19206C12.8994 9.98677 10.8033 11.3841 8.2881 11.3841C5.77286 11.3841 3.67683 9.98677 2 7.19206C3.67683 4.39735 5.77286 3 8.2881 3C10.8033 3 12.8994 4.39735 14.5762 7.19206Z" stroke="black" stroke-width="1.2" stroke-linecap="round" stroke-linejoin="round"/>
<path d="M13.7561 11.9339L15.4484 10.6176C15.5143 10.5664 15.5966 10.5411 15.6799 10.5463C15.7631 10.5516 15.8416 10.587 15.9006 10.646L16.9268 11.6718C16.9857 11.7308 17.0211 11.8094 17.0263 11.8926C17.0314 11.9759 17.0061 12.0582 16.9549 12.1241L15.6392 13.8163C15.732 14.1947 15.7375 14.5892 15.6555 14.9701C15.5734 15.3509 15.4059 15.7082 15.1656 16.0148C14.9253 16.3214 14.6184 16.5695 14.2681 16.7401C13.9179 16.9108 13.5335 16.9996 13.1439 16.9999C11.944 16.9999 10.4022 16.4853 9.54565 15.9714C10.9093 14.9435 10.5896 14.3234 10.7448 13.7443C11.1073 12.391 12.4038 11.6002 13.7561 11.9339ZM14.9248 12.5777C14.9472 12.5994 14.9694 12.6214 14.9913 12.6438L15.3805 13.0327L16.2285 11.9425L15.6303 11.3443L14.5401 12.1923L14.9248 12.5777Z" fill="black"/>
</svg>
