<svg width="16" height="16" viewBox="0 0 16 16" fill="none" xmlns="http://www.w3.org/2000/svg">
<path d="M7.00018 8.83224C7.00018 8.37624 6.62418 8.00024 6.16818 8.00024C5.71218 8.00024 5.33618 8.37624 5.33618 8.83224C5.33618 9.0529 5.42384 9.26453 5.57987 9.42056C5.7359 9.57659 5.94752 9.66424 6.16818 9.66424C6.38884 9.66424 6.60046 9.57659 6.75649 9.42056C6.91252 9.26453 7.00018 9.0529 7.00018 8.83224ZM9.67218 10.7282C9.31218 11.0882 8.54418 11.2162 8.00018 11.2162C7.45618 11.2162 6.68818 11.0882 6.32818 10.7282C6.30872 10.7074 6.28519 10.6908 6.25904 10.6794C6.23289 10.6681 6.20469 10.6622 6.17618 10.6622C6.14767 10.6622 6.11947 10.6681 6.09332 10.6794C6.06718 10.6908 6.04364 10.7074 6.02418 10.7282C6.00335 10.7477 5.98674 10.7712 5.97538 10.7974C5.96403 10.8235 5.95817 10.8517 5.95817 10.8802C5.95817 10.9088 5.96403 10.937 5.97538 10.9631C5.98674 10.9892 6.00335 11.0128 6.02418 11.0322C6.59218 11.6002 7.68018 11.6482 8.00018 11.6482C8.32018 11.6482 9.40818 11.6002 9.97618 11.0322C9.99701 11.0128 10.0136 10.9892 10.025 10.9631C10.0363 10.937 10.0422 10.9088 10.0422 10.8802C10.0422 10.8517 10.0363 10.8235 10.025 10.7974C10.0136 10.7712 9.99701 10.7477 9.97618 10.7282C9.89618 10.6482 9.76018 10.6482 9.67218 10.7282ZM9.83218 8.00024C9.37618 8.00024 9.00018 8.37624 9.00018 8.83224C9.00018 9.28824 9.37618 9.66424 9.83218 9.66424C10.2882 9.66424 10.6642 9.28824 10.6642 8.83224C10.6642 8.37624 10.2962 8.00024 9.83218 8.00024Z" fill="#232323"/>
<path d="M8 0C3.584 0 0 3.584 0 8C0 12.416 3.584 16 8 16C12.416 16 16 12.416 16 8C16 3.584 12.416 0 8 0ZM12.64 9.064C12.656 9.176 12.664 9.296 12.664 9.416C12.664 11.208 10.576 12.664 8 12.664C5.424 12.664 3.336 11.208 3.336 9.416C3.336 9.296 3.344 9.176 3.36 9.064C2.952 8.88 2.672 8.472 2.672 8C2.67081 7.7706 2.73744 7.54596 2.86351 7.3543C2.98959 7.16264 3.16948 7.01251 3.3806 6.92276C3.59173 6.83301 3.82466 6.80765 4.05015 6.84985C4.27564 6.89206 4.48363 6.99996 4.648 7.16C5.456 6.576 6.576 6.208 7.816 6.168L8.408 3.376C8.416 3.32 8.448 3.272 8.496 3.248C8.544 3.216 8.6 3.208 8.656 3.216L10.592 3.632C10.6577 3.49886 10.7577 3.38572 10.8819 3.3043C11.006 3.22288 11.1497 3.17616 11.2979 3.16898C11.4462 3.16179 11.5937 3.19441 11.7251 3.26345C11.8565 3.33248 11.9671 3.43542 12.0453 3.56159C12.1235 3.68775 12.1666 3.83255 12.17 3.98096C12.1734 4.12937 12.137 4.27598 12.0646 4.4056C11.9923 4.53521 11.8865 4.6431 11.7584 4.71808C11.6303 4.79306 11.4844 4.83239 11.336 4.832C10.888 4.832 10.528 4.48 10.504 4.04L8.768 3.672L8.24 6.168C9.464 6.208 10.56 6.584 11.36 7.16C11.4826 7.04289 11.6294 6.95399 11.79 6.89952C11.9506 6.84505 12.1211 6.82632 12.2897 6.84465C12.4583 6.86298 12.6208 6.91792 12.7659 7.00563C12.9111 7.09333 13.0353 7.21169 13.1299 7.35242C13.2245 7.49315 13.2872 7.65285 13.3136 7.82035C13.3401 7.98784 13.3296 8.1591 13.2829 8.32212C13.2363 8.48515 13.1546 8.63601 13.0435 8.76416C12.9325 8.8923 12.7947 8.99464 12.64 9.064Z" fill="#232323"/>
</svg>
