<svg width="20" height="20" viewBox="0 0 20 20" fill="none" xmlns="http://www.w3.org/2000/svg">
<g opacity="0.8" clip-path="url(#clip0_39_2900)">
<path d="M13.8263 6.275C13.83 6.275 13.835 6.275 13.84 6.275C13.9707 6.275 14.0919 6.31563 14.1913 6.38563L14.1894 6.38438C14.2619 6.4475 14.3107 6.53625 14.3225 6.63625V6.63813C14.335 6.71438 14.3419 6.80188 14.3419 6.89125C14.3419 6.93188 14.3407 6.97188 14.3376 7.01188V7.00625C14.1969 8.48688 13.5869 12.0775 13.2769 13.735C13.1457 14.4369 12.8875 14.6719 12.6375 14.6944C12.0944 14.745 11.6819 14.3356 11.1557 13.9906C10.3319 13.45 9.8663 13.1138 9.06693 12.5869C8.14255 11.9788 8.74193 11.6431 9.26818 11.0969C9.4063 10.9531 11.8007 8.775 11.8475 8.5775C11.85 8.56563 11.8513 8.5525 11.8513 8.53875C11.8513 8.49 11.8332 8.44562 11.8038 8.41187C11.7713 8.39062 11.7307 8.37875 11.6882 8.37875C11.66 8.37875 11.6332 8.38438 11.6082 8.39375L11.6094 8.39313C11.5269 8.41188 10.2111 9.28146 7.66192 11.0019C7.3838 11.2213 7.03255 11.36 6.65005 11.3763H6.6463C6.10442 11.3106 5.61255 11.19 5.14567 11.0181L5.19192 11.0331C4.60567 10.8419 4.14005 10.7413 4.18005 10.4175C4.2013 10.2492 4.43338 10.0769 4.8763 9.90063C7.60463 8.71187 9.42401 7.92833 10.3344 7.55C11.3388 7.01688 12.5032 6.57812 13.7276 6.29375L13.8257 6.27437L13.8263 6.275ZM9.9563 0.640625C4.76755 0.653125 0.565674 4.8625 0.565674 10.0531C0.565674 15.2513 4.77942 19.4656 9.97818 19.4656C15.1769 19.4656 19.3907 15.2519 19.3907 10.0531C19.3907 4.8625 15.1888 0.653125 10.0013 0.640625H10C9.98547 0.640625 9.97088 0.640625 9.9563 0.640625Z" fill="#232323"/>
</g>
<defs>
<clipPath id="clip0_39_2900">
<rect width="20" height="20" fill="white"/>
</clipPath>
</defs>
</svg>
