<svg width="24" height="24" viewBox="0 0 24 24" fill="none" xmlns="http://www.w3.org/2000/svg">
<path fill-rule="evenodd" clip-rule="evenodd" d="M15.6279 4.00019C15.49 4 15.3474 4 15.2 4H8.8C6.5376 4 5.4056 4 4.7032 4.7032C4 5.4056 4 6.5376 4 8.8V15.2C4 17.4624 4 18.5944 4.7032 19.2968C5.4056 20 6.5376 20 8.8 20H15.2C17.4624 20 18.5944 20 19.2968 19.2968C20 18.5944 20 17.4624 20 15.2V8.8C20 8.65257 20 8.50995 19.9998 8.37194C19.5292 8.64414 18.9828 8.79993 18.4 8.79993C16.6327 8.79993 15.2 7.36724 15.2 5.59993C15.2 5.01718 15.3558 4.47081 15.6279 4.00019ZM16.7846 9.4433C16.8262 9.65139 16.7833 9.86747 16.6656 10.044L14.2304 13.6968C13.5488 14.7192 12.0176 14.624 11.468 13.5248L11.1008 12.7912L8.6656 16.444C8.54784 16.6205 8.36478 16.743 8.15669 16.7846C7.9486 16.8262 7.73252 16.7833 7.556 16.6656C7.37947 16.5478 7.25695 16.3648 7.21539 16.1567C7.17383 15.9486 7.21664 15.7325 7.3344 15.556L9.76959 11.9032C10.4512 10.8808 11.9824 10.9768 12.532 12.0752L12.8992 12.8096L15.3344 9.156C15.4521 8.97947 15.6352 8.85695 15.8433 8.81539C16.0514 8.77383 16.2675 8.81664 16.444 8.9344C16.6205 9.05215 16.743 9.23521 16.7846 9.4433Z" fill="#232323"/>
<circle cx="18.4001" cy="5.60001" r="1.60001" fill="#232323"/>
</svg>
