<svg width="24" height="24" viewBox="0 0 24 24" fill="none" xmlns="http://www.w3.org/2000/svg">
<path fill-rule="evenodd" clip-rule="evenodd" d="M20.2328 15.7967C20.2328 19.4141 16.9551 21.0402 12.3664 21.0402C7.77778 21.0402 4.5 19.4141 4.5 15.8223C4.5 11.8897 6.46691 9.89723 10.3995 7.90476L9.00709 5.31102C8.92401 5.18111 8.87775 5.03108 8.87324 4.87694C8.86872 4.7228 8.90613 4.57033 8.98146 4.43577C9.0568 4.30122 9.16724 4.18964 9.301 4.11292C9.43477 4.0362 9.58685 3.99723 9.74103 4.00015H15.2997C15.4443 4.00385 15.5855 4.04426 15.71 4.11757C15.8346 4.19089 15.9385 4.2947 16.0119 4.41924C16.0853 4.54377 16.1258 4.68494 16.1297 4.82945C16.1335 4.97396 16.1004 5.11707 16.0337 5.24529L14.3333 7.90476C18.2647 9.87045 20.2328 11.8629 20.2328 15.7967ZM13.1271 9.94835C13.1271 9.74659 13.047 9.5531 12.9043 9.41044C12.7617 9.26778 12.5682 9.18763 12.3664 9.18763C12.1647 9.18763 11.9712 9.26778 11.8285 9.41044C11.6858 9.5531 11.6057 9.74659 11.6057 9.94835V10.7115C11.0901 10.7314 10.5995 10.9388 10.226 11.2948C9.8525 11.6508 9.62183 12.1309 9.5773 12.645C9.53276 13.159 9.67744 13.6717 9.98414 14.0866C10.2908 14.5016 10.7385 14.7902 11.243 14.8985L13.0358 15.2904C13.2196 15.33 13.3822 15.4362 13.4923 15.5885C13.6024 15.7409 13.6522 15.9286 13.6321 16.1155C13.612 16.3024 13.5234 16.4752 13.3834 16.6006C13.2434 16.7261 13.0619 16.7952 12.874 16.7948H11.8589C11.7015 16.795 11.5479 16.7465 11.4193 16.6558C11.2907 16.5651 11.1934 16.4368 11.1408 16.2885C11.11 16.1912 11.06 16.101 10.9937 16.0234C10.9275 15.9458 10.8462 15.8824 10.7549 15.8368C10.6636 15.7913 10.5641 15.7646 10.4622 15.7583C10.3603 15.752 10.2583 15.7663 10.162 15.8003C10.0658 15.8342 9.97741 15.8872 9.90209 15.9561C9.82677 16.0249 9.76607 16.1082 9.72361 16.201C9.68115 16.2938 9.65779 16.3942 9.65493 16.4962C9.65207 16.5982 9.66976 16.6998 9.70695 16.7948C9.8504 17.1988 10.1045 17.5544 10.4402 17.821C10.7759 18.0876 11.1797 18.2546 11.6057 18.3028V19.0769C11.6057 19.2787 11.6858 19.4722 11.8285 19.6149C11.9712 19.7575 12.1647 19.8377 12.3664 19.8377C12.5682 19.8377 12.7617 19.7575 12.9043 19.6149C13.047 19.4722 13.1271 19.2787 13.1271 19.0769V18.3028C13.6642 18.2418 14.1622 17.9922 14.5325 17.5984C14.9028 17.2047 15.1215 16.6923 15.1495 16.1525C15.1776 15.6127 15.0132 15.0805 14.6857 14.6505C14.3581 14.2205 13.8887 13.9206 13.3608 13.8043L11.568 13.4123C11.4225 13.3826 11.2934 13.2996 11.2058 13.1797C11.1183 13.0598 11.0787 12.9115 11.0946 12.7639C11.1106 12.6163 11.1811 12.4799 11.2922 12.3815C11.4034 12.2831 11.5473 12.2297 11.6958 12.2317H12.874C13.0315 12.2306 13.1855 12.2788 13.3143 12.3696C13.4431 12.4604 13.5402 12.5892 13.5921 12.738C13.6629 12.9235 13.8034 13.074 13.9836 13.1573C14.1638 13.2406 14.3695 13.2502 14.5567 13.1839C14.7438 13.1177 14.8977 12.9809 14.9853 12.8027C15.073 12.6246 15.0876 12.4192 15.0259 12.2305C14.8835 11.826 14.6297 11.4699 14.2938 11.2033C13.9579 10.9367 13.5534 10.7704 13.1271 10.7237V9.94835Z" fill="black"/>
</svg>
