<svg width="24" height="24" viewBox="0 0 24 24" fill="none" xmlns="http://www.w3.org/2000/svg">
<path d="M12.3595 5.92272C12.2967 5.86264 12.2131 5.8291 12.1262 5.8291C12.0393 5.8291 11.9557 5.86264 11.8929 5.92272L4.12622 13.3422C4.09324 13.3738 4.067 13.4117 4.04908 13.4537C4.03117 13.4957 4.02197 13.5408 4.02202 13.5865L4.02075 20.55C4.02075 20.908 4.16298 21.2514 4.41616 21.5045C4.66933 21.7577 5.01271 21.9 5.37075 21.9H9.42497C9.60399 21.9 9.77568 21.8288 9.90226 21.7023C10.0288 21.5757 10.1 21.404 10.1 21.225V15.4875C10.1 15.398 10.1355 15.3121 10.1988 15.2488C10.2621 15.1855 10.348 15.15 10.4375 15.15H13.8125C13.902 15.15 13.9878 15.1855 14.0511 15.2488C14.1144 15.3121 14.15 15.398 14.15 15.4875V21.225C14.15 21.404 14.2211 21.5757 14.3477 21.7023C14.4743 21.8288 14.6459 21.9 14.825 21.9H18.8775C19.2355 21.9 19.5789 21.7577 19.8321 21.5045C20.0853 21.2514 20.2275 20.908 20.2275 20.55V13.5865C20.2275 13.5408 20.2183 13.4957 20.2004 13.4537C20.1825 13.4117 20.1563 13.3738 20.1233 13.3422L12.3595 5.92272Z" fill="#232323"/>
<path d="M22.0353 11.9501L18.8796 8.93114V4.35C18.8796 4.17098 18.8085 3.99929 18.6819 3.8727C18.5553 3.74612 18.3837 3.675 18.2046 3.675H16.1796C16.0006 3.675 15.8289 3.74612 15.7023 3.8727C15.5758 3.99929 15.5046 4.17098 15.5046 4.35V5.7L13.0611 3.36366C12.8325 3.13247 12.4925 3 12.125 3C11.7588 3 11.4196 3.13247 11.191 3.36408L2.2177 11.9492C1.9553 12.2024 1.92239 12.6187 2.16117 12.893C2.22113 12.9622 2.29455 13.0185 2.37696 13.0584C2.45937 13.0983 2.54904 13.1211 2.64052 13.1253C2.732 13.1295 2.82338 13.115 2.90909 13.0827C2.9948 13.0505 3.07305 13.0011 3.13908 12.9377L11.893 4.57275C11.9558 4.51267 12.0394 4.47913 12.1263 4.47913C12.2132 4.47913 12.2968 4.51267 12.3596 4.57275L21.1143 12.9377C21.2433 13.0614 21.416 13.1288 21.5947 13.1254C21.7733 13.1219 21.9433 13.0477 22.0673 12.9191C22.3264 12.6508 22.3048 12.2078 22.0353 11.9501Z" fill="#232323"/>
</svg>
