<svg width="24" height="24" viewBox="0 0 24 24" fill="none" xmlns="http://www.w3.org/2000/svg">
<path d="M12.5689 3.00016C12.5461 3.00037 12.5234 3.00075 12.5007 3.00131C12.3251 3.02201 12.1117 3.15751 11.8718 3.48528C11.6094 3.84361 11.3456 4.4057 11.1207 5.11675C10.6954 6.46096 10.4002 8.33889 10.3205 10.4508H14.7658C14.6863 8.33874 14.3934 6.45988 13.9704 5.11556C13.7466 4.40444 13.4843 3.84349 13.223 3.48532C12.9784 3.15015 12.7621 3.01599 12.5844 3.00016H12.5833C12.5783 2.9997 12.5737 3.00039 12.5689 3.00016ZM13.8902 3.1894C14.1855 3.6329 14.4359 4.21048 14.6532 4.90113C15.1065 6.34163 15.4053 8.27699 15.4846 10.4508H18.6349C18.439 8.38428 17.7289 6.55015 16.698 5.22818C15.9106 4.21853 14.9497 3.50851 13.8902 3.1894ZM11.171 3.23973C10.1712 3.58004 9.26156 4.27008 8.50939 5.22937C7.47275 6.5515 6.7581 8.38474 6.56165 10.4509H9.60183C9.68118 8.2766 9.9822 6.3404 10.438 4.89995C10.6483 4.23509 10.889 3.67606 11.171 3.23973ZM9.05438 3.6398C6.09956 4.78698 3.93272 7.36293 3.5 10.4508H5.83462C6.03241 8.23122 6.79969 6.24987 7.94641 4.78737C8.28342 4.35752 8.65447 3.97206 9.05438 3.6398ZM16.3482 3.80386C16.6753 4.09736 16.9815 4.42713 17.2633 4.78859C18.4041 6.25132 19.1647 8.23191 19.362 10.4508H21.4774C21.0654 7.50196 19.0887 5.02069 16.3482 3.80386ZM3.76947 11.1671L10.1565 18.1662C10.1565 18.1662 11.1712 17 12.5 17C14 17 14.8209 18.1662 14.8209 18.1662L21.2067 11.1671H20.2377L14.4998 17.4546C14.4388 17.3632 14.3715 17.2759 14.2986 17.1936L17.9533 11.1671H17.1159L13.744 16.7264C13.6188 16.6499 13.4869 16.5849 13.3499 16.5324L14.7574 11.1671H14.0171L12.6504 16.3778C12.5966 16.374 12.5427 16.372 12.4887 16.3718C12.4348 16.372 12.3808 16.3741 12.327 16.3779L10.9603 11.1671H10.2188L11.6275 16.5324C11.4905 16.5849 11.3586 16.6498 11.2334 16.7264L7.86143 11.1671H7.02289L10.6787 17.1936C10.6058 17.2759 10.5385 17.3632 10.4775 17.4546L4.73972 11.1671H3.76947Z" fill="black"/>
<path d="M14.92 21.5031C15.6163 21.1602 16 20.6909 16 20.1818L16 18.8182C16 18.3091 15.6163 17.8398 14.92 17.4969C14.2695 17.1764 13.4087 17 12.5 17C11.5913 17 10.7305 17.1764 10.08 17.4969C9.38365 17.8398 9 18.3091 9 18.8182L9 20.1818C9 20.6909 9.38365 21.1602 10.08 21.5031C10.7305 21.8236 11.5913 22 12.5 22C13.4087 22 14.2695 21.8236 14.92 21.5031ZM12.7692 21.5395L12.7692 20.6304C13.3217 20.6126 13.8672 20.5198 14.3846 20.3554L14.3846 21.2244C13.9343 21.3983 13.375 21.5131 12.7692 21.5395ZM14.9231 20.9543L14.9231 20.1381C15.1182 20.0432 15.299 19.9287 15.4615 19.7972L15.4615 20.1818C15.4615 20.4659 15.2596 20.733 14.9231 20.9543ZM9.53846 20.1818L9.53846 19.798C9.70101 19.9296 9.88181 20.044 10.0769 20.1389L10.0769 20.9551C9.74038 20.733 9.53846 20.4659 9.53846 20.1818ZM10.6154 21.2244L10.6154 20.3557C11.1328 20.5201 11.6783 20.6129 12.2308 20.6307L12.2308 21.5398C11.625 21.5131 11.0657 21.3983 10.6154 21.2244Z" fill="black"/>
</svg>
