<svg width="24" height="24" viewBox="0 0 24 24" fill="none" xmlns="http://www.w3.org/2000/svg">
<path fill-rule="evenodd" clip-rule="evenodd" d="M11.735 5.09561C12.0751 4.96813 12.4499 4.96813 12.79 5.09561L18.0497 7.06801C18.3362 7.17541 18.5831 7.36771 18.7574 7.6192C18.9317 7.87069 19.025 8.16938 19.025 8.47536V12.5051C19.025 13.761 18.6753 14.992 18.0151 16.0604C17.3548 17.1287 16.4101 17.9921 15.2868 18.5537L12.7667 19.8131C12.6101 19.8914 12.4375 19.9321 12.2625 19.9321C12.0875 19.9321 11.9149 19.8914 11.7583 19.8131L9.23816 18.553C8.11486 17.9913 7.17016 17.128 6.50992 16.0596C5.84967 14.9913 5.49997 13.7602 5.5 12.5043V8.47611C5.49981 8.17001 5.5931 7.87114 5.7674 7.6195C5.94169 7.36787 6.18867 7.17545 6.4753 7.06801L11.735 5.09561ZM13.0139 12.2616C13.3004 12.0962 13.5243 11.8409 13.6508 11.5353C13.7774 11.2296 13.7996 10.8908 13.714 10.5713C13.6284 10.2517 13.4397 9.96937 13.1773 9.76799C12.9149 9.56661 12.5933 9.45744 12.2625 9.45743C11.9317 9.45744 11.6101 9.56661 11.3477 9.76799C11.0853 9.96937 10.8966 10.2517 10.811 10.5713C10.7254 10.8908 10.7476 11.2296 10.8742 11.5353C11.0008 11.8409 11.2246 12.0962 11.5111 12.2616V14.7172C11.5111 14.9164 11.5903 15.1076 11.7312 15.2485C11.8721 15.3894 12.0632 15.4685 12.2625 15.4685C12.4618 15.4685 12.6529 15.3894 12.7938 15.2485C12.9347 15.1076 13.0139 14.9164 13.0139 14.7172V12.2616Z" fill="black"/>
</svg>
