<svg width="24" height="24" viewBox="0 0 24 24" fill="none" xmlns="http://www.w3.org/2000/svg">
<path fill-rule="evenodd" clip-rule="evenodd" d="M13.2406 3.138C12.9047 3 12.478 3 11.6254 3C10.7729 3 10.3471 3 10.0103 3.138C9.78864 3.22856 9.5871 3.36206 9.41726 3.53081C9.24742 3.69956 9.11263 3.90023 9.02064 4.12127C8.9353 4.32373 8.90262 4.5607 8.889 4.9048C8.88252 5.15402 8.81279 5.3975 8.68638 5.61238C8.55996 5.82726 8.381 6.00648 8.1663 6.1332C7.94726 6.25495 7.70104 6.31945 7.45044 6.32072C7.19984 6.32199 6.95297 6.25999 6.73271 6.14046C6.42583 5.97886 6.2034 5.88988 5.98368 5.86083C5.50302 5.79811 5.017 5.92728 4.63089 6.22036C4.34218 6.44007 4.12882 6.80687 3.70301 7.53955C3.27629 8.27224 3.06384 8.63813 3.01572 8.99675C2.95217 9.47431 3.08291 9.95732 3.37889 10.3396C3.51326 10.5139 3.70301 10.66 3.99626 10.8434C4.42934 11.1131 4.70716 11.5725 4.70716 12.0791C4.70716 12.5857 4.42934 13.0451 3.99717 13.3139C3.70301 13.4982 3.51326 13.6443 3.37798 13.8187C3.23232 14.0077 3.12535 14.2236 3.06319 14.454C3.00103 14.6844 2.9849 14.9248 3.01572 15.1615C3.06384 15.5192 3.27629 15.886 3.70301 16.6187C4.12973 17.3513 4.34218 17.7172 4.63089 17.9379C5.01585 18.2311 5.50249 18.36 5.98368 18.2974C6.2034 18.2683 6.42583 18.1794 6.73271 18.0178C6.95308 17.8981 7.20012 17.836 7.45089 17.8372C7.70167 17.8385 7.94806 17.9031 8.16721 18.025C8.60845 18.2792 8.86993 18.7468 8.889 19.2534C8.90262 19.5984 8.9353 19.8345 9.02064 20.0369C9.20586 20.4818 9.56176 20.8359 10.0103 21.0202C10.3462 21.1582 10.7729 21.1582 11.6254 21.1582C12.478 21.1582 12.9047 21.1582 13.2406 21.0202C13.4622 20.9297 13.6638 20.7962 13.8336 20.6274C14.0035 20.4587 14.1383 20.258 14.2302 20.0369C14.3156 19.8345 14.3483 19.5984 14.3619 19.2534C14.38 18.7468 14.6424 18.2783 15.0846 18.025C15.3036 17.9033 15.5498 17.8388 15.8004 17.8375C16.051 17.8362 16.2979 17.8982 16.5182 18.0178C16.825 18.1794 17.0475 18.2683 17.2672 18.2974C17.7484 18.3609 18.235 18.2311 18.62 17.9379C18.9087 17.7181 19.1221 17.3513 19.5479 16.6187C19.9746 15.886 20.187 15.5201 20.2352 15.1615C20.2659 14.9248 20.2496 14.6843 20.1873 14.4539C20.1249 14.2235 20.0178 14.0076 19.872 13.8187C19.7376 13.6443 19.5479 13.4982 19.2546 13.3148C18.8215 13.0451 18.5437 12.5857 18.5437 12.0791C18.5437 11.5725 18.8215 11.1131 19.2537 10.8444C19.5479 10.66 19.7376 10.5139 19.8729 10.3396C20.0186 10.1505 20.1255 9.93462 20.1877 9.70421C20.2498 9.4738 20.266 9.2334 20.2352 8.99675C20.187 8.63903 19.9746 8.27224 19.5479 7.53955C19.1212 6.80687 18.9087 6.44098 18.62 6.22036C18.2339 5.92728 17.7479 5.79811 17.2672 5.86083C17.0475 5.88988 16.825 5.97886 16.5182 6.14046C16.2978 6.26015 16.0508 6.32224 15.8 6.32097C15.5492 6.3197 15.3028 6.25512 15.0837 6.1332C14.8691 6.00637 14.6904 5.8271 14.5641 5.61223C14.4379 5.39736 14.3683 5.15393 14.3619 4.9048C14.3483 4.55979 14.3156 4.32373 14.2302 4.12127C14.1383 3.90023 14.0035 3.69956 13.8336 3.53081C13.6638 3.36206 13.4622 3.22856 13.2406 3.138ZM11.6254 14.8028C13.1417 14.8028 14.3701 13.5835 14.3701 12.0791C14.3701 10.5747 13.1407 9.35538 11.6254 9.35538C10.1101 9.35538 8.88083 10.5747 8.88083 12.0791C8.88083 13.5835 10.1101 14.8028 11.6254 14.8028Z" fill="#020417"/>
</svg>
