<svg width="24" height="24" viewBox="0 0 24 24" fill="none" xmlns="http://www.w3.org/2000/svg">
<path fill-rule="evenodd" clip-rule="evenodd" d="M4.04388 11.5512H15.6211C15.766 11.5512 15.8988 11.6116 16.0075 11.7202L17.8424 13.6035C18.1805 13.9536 17.939 14.5451 17.4561 14.5451H5.87886C5.73399 14.5451 5.6012 14.4848 5.49255 14.3761L3.65757 12.4929C3.31955 12.1428 3.56099 11.5512 4.04388 11.5512ZM3.65757 9.05228L5.49255 7.16901C5.58913 7.06036 5.73399 7 5.87886 7H17.444C17.9269 7 18.1684 7.59154 17.8304 7.94163L16.0075 9.8249C15.9109 9.93355 15.766 9.99391 15.6211 9.99391H4.04388C3.56099 9.99391 3.31955 9.40237 3.65757 9.05228ZM17.8304 17.032L15.9954 18.9153C15.8867 19.0239 15.7539 19.0843 15.6091 19.0843H4.04388C3.56099 19.0843 3.31955 18.4928 3.65757 18.1427L5.49255 16.2594C5.58913 16.1507 5.73399 16.0904 5.87886 16.0904H17.444C17.9269 16.0904 18.1684 16.6819 17.8304 17.032Z" fill="black"/>
<path d="M18.5 4H22.5M20.5 2V6" stroke="black" stroke-width="1.5" stroke-linecap="round" stroke-linejoin="round"/>
</svg>
