<svg width="24" height="24" viewBox="0 0 24 24" fill="none" xmlns="http://www.w3.org/2000/svg">
<path fill-rule="evenodd" clip-rule="evenodd" d="M5.47909 6.92847C4.8216 6.92847 4.19103 7.18966 3.72611 7.65458C3.26119 8.1195 3 8.75006 3 9.40756V17.5209C3 18.1784 3.26119 18.809 3.72611 19.2739C4.19103 19.7388 4.8216 20 5.47909 20H18.0999C18.7574 20 19.388 19.7388 19.8529 19.2739C20.3178 18.809 20.579 18.1784 20.579 17.5209V9.40756C20.579 8.75006 20.3178 8.1195 19.8529 7.65458C19.388 7.18966 18.7574 6.92847 18.0999 6.92847H5.47909Z" fill="#232323"/>
<path d="M15.8328 4.0608C16.0998 3.98967 16.3794 3.98082 16.6503 4.03494C16.9212 4.08905 17.176 4.20468 17.3951 4.3729C17.6142 4.54112 17.7917 4.75744 17.914 5.00515C18.0362 5.25286 18.0999 5.52534 18.1001 5.80157H9.08521L15.8328 4.0608Z" fill="#232323"/>
<path d="M7.65526 11.3375C7.50593 11.2202 7.53698 11.1283 7.73223 11.1324L14.6725 11.2798C14.8648 11.284 14.9288 11.4154 14.8205 11.5667L10.8295 17.1418C10.7193 17.2964 10.6181 17.2668 10.6037 17.0775L10.3765 14.0289L13.2558 12.1234L9.95936 13.1461L7.65526 11.3375Z" fill="white"/>
</svg>
