<svg width="24" height="24" viewBox="0 0 24 24" fill="none" xmlns="http://www.w3.org/2000/svg">
<path fill-rule="evenodd" clip-rule="evenodd" d="M6.82392 7.74512C6.20758 7.74512 5.61648 7.98996 5.18066 8.42578C4.74484 8.8616 4.5 9.4527 4.5 10.069V17.6746C4.5 18.2909 4.74484 18.882 5.18066 19.3179C5.61648 19.7537 6.20758 19.9985 6.82392 19.9985H18.6548C19.2711 19.9985 19.8622 19.7537 20.298 19.3179C20.7339 18.882 20.9787 18.2909 20.9787 17.6746V10.069C20.9787 9.4527 20.7339 8.8616 20.298 8.42578C19.8622 7.98996 19.2711 7.74512 18.6548 7.74512H6.82392ZM16.5421 12.8155C16.262 12.8155 15.9933 12.9268 15.7952 13.1249C15.5971 13.323 15.4858 13.5917 15.4858 13.8718C15.4858 14.152 15.5971 14.4207 15.7952 14.6188C15.9933 14.8169 16.262 14.9281 16.5421 14.9281C16.8223 14.9281 17.091 14.8169 17.2891 14.6188C17.4872 14.4207 17.5985 14.152 17.5985 13.8718C17.5985 13.5917 17.4872 13.323 17.2891 13.1249C17.091 12.9268 16.8223 12.8155 16.5421 12.8155Z" fill="#232323"/>
<path d="M16.5294 5.05699C16.7796 4.99032 17.0418 4.98202 17.2957 5.03275C17.5496 5.08348 17.7885 5.19187 17.9939 5.34956C18.1993 5.50725 18.3657 5.71003 18.4802 5.94223C18.5948 6.17444 18.6545 6.42987 18.6547 6.68881H10.2041L16.5294 5.05699Z" fill="#232323"/>
</svg>
