<svg width="71" height="21" viewBox="0 0 71 21" fill="none" xmlns="http://www.w3.org/2000/svg">
<g clip-path="url(#clip0_39_2918)">
<path d="M70.5467 18.6566C70.5467 18.9222 70.4944 19.1851 70.3927 19.4305C70.2909 19.6758 70.1418 19.8987 69.9539 20.0863C69.766 20.274 69.5429 20.4228 69.2974 20.5243C69.0519 20.6257 68.7888 20.6778 68.5232 20.6775H2.30206C1.76533 20.6781 1.25036 20.4655 0.870394 20.0865C0.490427 19.7075 0.276578 19.1932 0.275879 18.6566V2.54062C0.276578 2.0038 0.490342 1.48919 0.870234 1.1098C1.25013 0.7304 1.76509 0.517229 2.30206 0.51709H68.5227C68.7884 0.51709 69.0516 0.569434 69.2971 0.671132C69.5427 0.772831 69.7658 0.921892 69.9537 1.1098C70.1416 1.29771 70.2906 1.52079 70.3923 1.76629C70.494 2.01179 70.5463 2.27491 70.5462 2.54062L70.5467 18.6566Z" fill="white"/>
<path d="M68.5232 21.1475H2.30207C1.64088 21.1474 1.00676 20.885 0.538833 20.418C0.0709103 19.951 -0.19259 19.3175 -0.193848 18.6565L-0.193848 2.54103C-0.19287 1.8797 0.0704565 1.24575 0.538364 0.778263C1.00627 0.310775 1.64055 0.0479215 2.30207 0.0473633L68.5227 0.0473633C69.1841 0.0482 69.8182 0.311143 70.2861 0.77857C70.7539 1.246 71.0173 1.87978 71.0186 2.54103V18.6565C71.0196 20.0305 69.8981 21.1475 68.5232 21.1475Z" fill="#A6A6A6"/>
<path d="M70.5467 18.6566C70.5467 18.9222 70.4944 19.1851 70.3927 19.4305C70.2909 19.6758 70.1418 19.8987 69.9539 20.0863C69.766 20.274 69.5429 20.4228 69.2974 20.5243C69.0519 20.6257 68.7888 20.6778 68.5232 20.6775H2.30206C1.76533 20.6781 1.25036 20.4655 0.870394 20.0865C0.490427 19.7075 0.276578 19.1932 0.275879 18.6566V2.54062C0.276578 2.0038 0.490342 1.48919 0.870234 1.1098C1.25013 0.7304 1.76509 0.517229 2.30206 0.51709H68.5227C68.7884 0.51709 69.0516 0.569434 69.2971 0.671132C69.5427 0.772831 69.7658 0.921892 69.9537 1.1098C70.1416 1.29771 70.2906 1.52079 70.3923 1.76629C70.494 2.01179 70.5463 2.27491 70.5462 2.54062L70.5467 18.6566Z" fill="black"/>
<path d="M15.7072 10.4862C15.6919 8.78564 17.1 7.95828 17.1644 7.91977C16.3669 6.75735 15.1308 6.59853 14.6965 6.58587C13.6583 6.47665 12.6513 7.20691 12.1224 7.20691C11.583 7.20691 10.7686 6.59642 9.89094 6.61436C8.76147 6.63177 7.70484 7.28553 7.12532 8.30073C5.92935 10.3707 6.82132 13.4126 7.96715 15.0858C8.54033 15.9057 9.21009 16.8201 10.0867 16.788C10.9444 16.7531 11.2648 16.2418 12.2998 16.2418C13.3253 16.2418 13.6261 16.788 14.5202 16.7674C15.4406 16.7531 16.0201 15.9443 16.5733 15.1174C17.2356 14.1787 17.5016 13.2532 17.5122 13.2058C17.4911 13.1984 15.7251 12.524 15.7072 10.4862ZM14.0182 5.48519C14.4795 4.90847 14.7951 4.12386 14.7075 3.32764C14.0399 3.35719 13.2049 3.78933 12.7241 4.35339C12.2987 4.85043 11.9187 5.66512 12.0169 6.43127C12.7669 6.4872 13.5369 6.05294 14.0182 5.48519Z" fill="white"/>
<path d="M68.5233 0.0473633H33.0532L46.9462 21.1475H68.5233C69.1846 21.147 69.8187 20.8842 70.2866 20.417C70.7545 19.9497 71.0179 19.3161 71.0192 18.6549V2.54103C71.0181 1.87974 70.7547 1.24587 70.2868 0.778417C69.8189 0.310959 69.1847 0.0480608 68.5233 0.0473633Z" fill="url(#paint0_linear_39_2918)"/>
<path d="M28.1299 16.6703H26.9313L26.2747 14.6078H23.9926L23.3671 16.6703H22.2002L24.4618 9.64838H25.8583L28.1299 16.6703ZM26.0768 13.7424L25.483 11.9088C25.4202 11.7215 25.302 11.2804 25.1289 10.586H25.1078C25.0381 10.8847 24.9268 11.3258 24.7742 11.9088L24.1905 13.7424H26.0768ZM33.9345 14.0764C33.9345 14.9375 33.7007 15.6182 33.2326 16.1179C32.8135 16.5627 32.2926 16.7848 31.6714 16.7848C31.0005 16.7848 30.5181 16.5458 30.2252 16.0667V18.7234H29.1V13.2712C29.1 12.7304 29.0857 12.1758 29.0583 11.607H30.0479L30.1107 12.4096H30.1318C30.5071 11.8049 31.0765 11.5025 31.8408 11.5025C32.4382 11.5025 32.937 11.7384 33.336 12.2106C33.7345 12.6839 33.9345 13.3055 33.9345 14.0764ZM32.7882 14.1176C32.7882 13.6247 32.6773 13.2185 32.4546 12.8982C32.2113 12.5652 31.8846 12.3985 31.475 12.3985C31.1974 12.3985 30.9451 12.4914 30.7198 12.6744C30.4939 12.8591 30.3461 13.1003 30.2769 13.3989C30.2461 13.5106 30.2285 13.6255 30.2247 13.7414V14.5861C30.2247 14.9539 30.3376 15.2647 30.5635 15.519C30.7894 15.7723 31.0829 15.8994 31.4439 15.8994C31.8677 15.8994 32.1976 15.7353 32.4335 15.4098C32.6699 15.0832 32.7882 14.6526 32.7882 14.1176ZM39.7597 14.0764C39.7597 14.9375 39.5259 15.6182 39.0578 16.1179C38.6382 16.5627 38.1178 16.7848 37.496 16.7848C36.8252 16.7848 36.3428 16.5458 36.0499 16.0667V18.7234H34.9247V13.2712C34.9247 12.7304 34.9104 12.1758 34.883 11.607H35.8726L35.9354 12.4096H35.9565C36.3312 11.8049 36.9007 11.5025 37.6655 11.5025C38.2624 11.5025 38.7612 11.7384 39.1612 12.2106C39.5592 12.6839 39.7597 13.3055 39.7597 14.0764ZM38.6128 14.1176C38.6128 13.6247 38.5015 13.2185 38.2787 12.8982C38.0354 12.5652 37.7098 12.3985 37.3002 12.3985C37.0226 12.3985 36.7703 12.4914 36.5439 12.6744C36.318 12.8591 36.1708 13.1003 36.1016 13.3989C36.0673 13.5382 36.0488 13.6517 36.0488 13.7414V14.5861C36.0488 14.9539 36.1623 15.2647 36.3872 15.519C36.613 15.7717 36.9065 15.8994 37.2686 15.8994C37.6929 15.8994 38.0228 15.7353 38.2582 15.4098C38.4946 15.0832 38.6128 14.6526 38.6128 14.1176ZM46.2726 14.7006C46.2726 15.2984 46.0636 15.7844 45.6483 16.1596C45.1912 16.569 44.5531 16.7743 43.735 16.7743C42.9792 16.7743 42.3733 16.6286 41.9163 16.3369L42.1765 15.3992C42.67 15.6915 43.212 15.8372 43.8021 15.8372C44.2264 15.8372 44.5563 15.7411 44.7917 15.5507C45.0276 15.3597 45.1469 15.1043 45.1469 14.7856C45.1469 14.5001 45.0482 14.2611 44.8545 14.0664C44.6597 13.8722 44.3378 13.6912 43.8854 13.525C42.6557 13.0665 42.0403 12.3958 42.0403 11.5136C42.0403 10.9374 42.2577 10.4657 42.6916 10.0969C43.1254 9.72858 43.7007 9.54443 44.4164 9.54443C45.0556 9.54443 45.5881 9.65577 46.0109 9.87791L45.7285 10.795C45.3305 10.5797 44.8814 10.472 44.3789 10.472C43.982 10.472 43.6706 10.5697 43.4479 10.7638C43.2605 10.9374 43.1655 11.149 43.1655 11.4002C43.1655 11.6772 43.2737 11.9072 43.4891 12.0877C43.6759 12.2539 44.0169 12.4349 44.5098 12.6291C45.1147 12.8728 45.5591 13.1567 45.8435 13.4828C46.1301 13.8089 46.2726 14.2157 46.2726 14.7006ZM50.0025 12.4513H48.7622V14.9096C48.7622 15.5348 48.9807 15.8467 49.4188 15.8467C49.6199 15.8467 49.7867 15.8298 49.9186 15.7944L49.9497 16.6487C49.7281 16.7315 49.4362 16.7732 49.0747 16.7732C48.6303 16.7732 48.283 16.6376 48.0323 16.3664C47.7826 16.0952 47.657 15.6409 47.657 15.0014V12.4491H46.9181V11.6049H47.657V10.6778L48.7622 10.3443V11.6049H50.0025V12.4513ZM55.5876 14.097C55.5876 14.8753 55.3649 15.5143 54.9205 16.0139C54.4555 16.5284 53.8369 16.7848 53.0658 16.7848C52.3216 16.7848 51.73 16.5384 51.2887 16.0461C50.8475 15.5528 50.6269 14.9312 50.6269 14.1814C50.6269 13.3968 50.8549 12.7541 51.3093 12.2544C51.7648 11.7542 52.3781 11.5041 53.1492 11.5041C53.8923 11.5041 54.4893 11.7511 54.941 12.2439C55.3728 12.7219 55.5876 13.3393 55.5876 14.097ZM54.4212 14.1228C54.4212 13.659 54.3209 13.2612 54.1198 12.9282C53.8839 12.5262 53.5461 12.3251 53.1086 12.3251C52.6578 12.3251 52.3121 12.5262 52.0767 12.9282C51.8751 13.2612 51.7748 13.6659 51.7748 14.1439C51.7748 14.6083 51.8751 15.0072 52.0767 15.3391C52.32 15.7411 52.6594 15.9422 53.0991 15.9422C53.5292 15.9422 53.8665 15.7369 54.1103 15.329C54.3172 14.9882 54.4212 14.5877 54.4212 14.1228ZM59.2467 12.5964C59.1297 12.5752 59.011 12.5648 58.8921 12.5652C58.4962 12.5652 58.1901 12.714 57.9748 13.0137C57.7879 13.2775 57.694 13.611 57.694 14.0136V16.6703H56.5687V13.2016C56.5697 12.67 56.5588 12.1386 56.536 11.6075H57.5161L57.5573 12.5763H57.5884C57.7077 12.2434 57.8945 11.9748 58.1511 11.7738C58.3858 11.5981 58.6711 11.503 58.9644 11.5025C59.0683 11.5025 59.1623 11.5099 59.2457 11.5231L59.2467 12.5964ZM64.2792 13.8991C64.2821 14.0701 64.2683 14.241 64.238 14.4094H60.8623C60.875 14.9096 61.0386 15.2926 61.3521 15.5565C61.6366 15.7918 62.0044 15.91 62.4562 15.91C62.956 15.91 63.412 15.8308 63.8221 15.671L63.9984 16.4514C63.5192 16.6603 62.9534 16.7643 62.3005 16.7643C61.5152 16.7643 60.8987 16.5331 60.4501 16.072C60.0025 15.6103 59.7782 14.9898 59.7782 14.2125C59.7782 13.4496 59.9867 12.8137 60.4042 12.3067C60.8412 11.7653 61.4318 11.4946 62.1749 11.4946C62.9048 11.4946 63.4574 11.7653 63.8327 12.3067C64.1298 12.7357 64.2792 13.2675 64.2792 13.8991ZM63.2062 13.6073C63.2141 13.2733 63.1402 12.9858 62.9877 12.7425C62.7929 12.4291 62.4932 12.2729 62.0915 12.2729C61.7237 12.2729 61.4239 12.4254 61.1959 12.7314C61.0085 12.9747 60.8971 13.267 60.8628 13.6063L63.2062 13.6073Z" fill="white"/>
<path d="M23.668 7.1662C23.355 7.1662 23.0843 7.1509 22.8589 7.12504V3.73015C23.1741 3.68147 23.4926 3.65748 23.8115 3.65839C25.102 3.65839 25.6963 4.29315 25.6963 5.32787C25.6963 6.52141 24.9943 7.1662 23.668 7.1662ZM23.8569 4.0937C23.6828 4.0937 23.5345 4.10425 23.4115 4.12958V6.71031C23.478 6.72086 23.6057 6.72561 23.7852 6.72561C24.6307 6.72561 25.112 6.2444 25.112 5.34317C25.112 4.53956 24.6766 4.0937 23.8569 4.0937ZM27.5483 7.19205C26.821 7.19205 26.3497 6.6491 26.3497 5.91198C26.3497 5.14372 26.831 4.59602 27.5895 4.59602C28.3062 4.59602 28.7881 5.11312 28.7881 5.87135C28.7881 6.6491 28.2914 7.19205 27.5483 7.19205ZM27.5694 5.0002C27.1699 5.0002 26.9139 5.37378 26.9139 5.89615C26.9139 6.4085 27.1751 6.78207 27.5641 6.78207C27.9531 6.78207 28.2144 6.38264 28.2144 5.8856C28.2144 5.37905 27.9584 5.0002 27.5694 5.0002ZM32.9354 4.6472L32.1569 7.1356H31.6497L31.3273 6.05497C31.2471 5.79064 31.1803 5.52243 31.1272 5.25136H31.1167C31.076 5.52257 30.999 5.79431 30.9172 6.05497L30.5741 7.1356H30.0616L29.329 4.6472H29.8975L30.1793 5.83019C30.2458 6.11196 30.3018 6.37789 30.3482 6.62905H30.3588C30.3994 6.41958 30.4659 6.15786 30.5635 5.83547L30.9172 4.64773H31.3679L31.7062 5.81014C31.788 6.09191 31.8545 6.36839 31.9062 6.62958H31.921C31.9569 6.37367 32.0134 6.10193 32.0899 5.81014L32.3923 4.64773L32.9354 4.6472ZM35.8013 7.1356H35.2482V5.70672C35.2482 5.26666 35.0793 5.04611 34.7463 5.04611C34.4185 5.04611 34.1931 5.32787 34.1931 5.65554V7.1356H33.64V5.35847C33.64 5.13844 33.6347 4.90259 33.6194 4.64668H34.1061L34.1319 5.0308H34.1472C34.2961 4.76487 34.598 4.59602 34.9363 4.59602C35.4588 4.59602 35.8018 4.99545 35.8018 5.64552L35.8013 7.1356ZM37.3266 7.1356H36.773V3.50537H37.3266V7.1356ZM39.3433 7.19205C38.6165 7.19205 38.1447 6.6491 38.1447 5.91198C38.1447 5.14372 38.626 4.59602 39.3839 4.59602C40.1012 4.59602 40.5826 5.11312 40.5826 5.87135C40.5831 6.6491 40.0859 7.19205 39.3433 7.19205ZM39.3639 5.0002C38.9644 5.0002 38.7084 5.37378 38.7084 5.89615C38.7084 6.4085 38.9702 6.78207 39.3581 6.78207C39.7476 6.78207 40.0083 6.38264 40.0083 5.8856C40.0089 5.37905 39.7534 5.0002 39.3639 5.0002ZM42.7634 7.1356L42.7233 6.84908H42.7085C42.5396 7.07967 42.2931 7.19205 41.9807 7.19205C41.5347 7.19205 41.218 6.87969 41.218 6.45968C41.218 5.84549 41.7506 5.52785 42.6726 5.52785V5.48194C42.6726 5.15427 42.499 4.99018 42.1559 4.99018C41.9105 4.99018 41.6951 5.05191 41.5057 5.17485L41.3932 4.8113C41.6234 4.66778 41.9105 4.59602 42.2477 4.59602C42.898 4.59602 43.2263 4.93899 43.2263 5.62546V6.54199C43.2263 6.79315 43.2373 6.98785 43.2621 7.13612L42.7634 7.1356ZM42.6874 5.89615C42.073 5.89615 41.7648 6.04495 41.7648 6.39794C41.7648 6.65913 41.9237 6.78682 42.1443 6.78682C42.4256 6.78682 42.6874 6.57207 42.6874 6.28028V5.89615ZM45.9122 7.1356L45.8863 6.73617H45.871C45.7121 7.03798 45.4451 7.19205 45.0719 7.19205C44.4718 7.19205 44.0274 6.66441 44.0274 5.922C44.0274 5.14372 44.4882 4.59549 45.1173 4.59549C45.4504 4.59549 45.6863 4.70788 45.8193 4.93372H45.8304V3.50537H46.384V6.46495C46.384 6.70556 46.3898 6.93087 46.4046 7.1356H45.9122ZM45.8304 5.67137C45.8304 5.32312 45.5997 5.02606 45.2477 5.02606C44.8376 5.02606 44.5869 5.38961 44.5869 5.90142C44.5869 6.40322 44.8471 6.74672 45.2366 6.74672C45.5844 6.74672 45.8304 6.44438 45.8304 6.0861V5.67137ZM49.8943 7.19205C49.1676 7.19205 48.6963 6.6491 48.6963 5.91198C48.6963 5.14372 49.1776 4.59602 49.9355 4.59602C50.6528 4.59602 51.1341 5.11312 51.1341 5.87135C51.1346 6.6491 50.638 7.19205 49.8943 7.19205ZM49.9149 5.0002C49.5159 5.0002 49.2599 5.37378 49.2599 5.89615C49.2599 6.4085 49.5212 6.78207 49.9096 6.78207C50.2991 6.78207 50.5599 6.38264 50.5599 5.8856C50.5609 5.37905 50.305 5.0002 49.9149 5.0002ZM54.1087 7.1356H53.5551V5.70672C53.5551 5.26666 53.3862 5.04611 53.0532 5.04611C52.7254 5.04611 52.5006 5.32787 52.5006 5.65554V7.1356H51.9469V5.35847C51.9469 5.13844 51.9416 4.90259 51.9263 4.64668H52.4129L52.4388 5.0308H52.4541C52.6024 4.76487 52.9048 4.59549 53.2426 4.59549C53.7651 4.59549 54.1087 4.99492 54.1087 5.64499V7.1356ZM57.8302 5.06194H57.2216V6.27025C57.2216 6.57787 57.3282 6.73142 57.5436 6.73142C57.6412 6.73142 57.723 6.72086 57.789 6.70556L57.8043 7.12557C57.6972 7.16673 57.5536 7.18731 57.3752 7.18731C56.9393 7.18731 56.6785 6.9467 56.6785 6.31668V5.06194H56.3154V4.6472H56.6785V4.19131L57.2216 4.02722V4.64668H57.8302V5.06194ZM60.7583 7.1356H60.2057V5.71728C60.2057 5.27194 60.0374 5.04663 59.7038 5.04663C59.4172 5.04663 59.1502 5.24134 59.1502 5.63549V7.1356H58.5976V3.50537H59.1502V5.0002H59.1612C59.3354 4.72899 59.5877 4.59549 59.9097 4.59549C60.4364 4.59549 60.7583 5.00495 60.7583 5.65554V7.1356ZM63.7583 6.02437H62.0984C62.1089 6.49556 62.4209 6.76149 62.8827 6.76149C63.1281 6.76149 63.354 6.72034 63.5535 6.64383L63.6395 7.02796C63.4041 7.13032 63.1271 7.1815 62.8046 7.1815C62.0261 7.1815 61.5653 6.68973 61.5653 5.92728C61.5653 5.1643 62.0372 4.59074 62.7423 4.59074C63.3783 4.59074 63.7773 5.06194 63.7773 5.77373C63.7809 5.85774 63.7745 5.94186 63.7583 6.02437ZM63.2511 5.63021C63.2511 5.24608 63.0574 4.97487 62.7038 4.97487C62.386 4.97487 62.1348 5.25136 62.0989 5.63021H63.2511Z" fill="white"/>
</g>
<defs>
<linearGradient id="paint0_linear_39_2918" x1="52.0356" y1="21.2035" x2="52.0356" y2="-54.8938" gradientUnits="userSpaceOnUse">
<stop stop-color="#1A1A1A" stop-opacity="0.1"/>
<stop offset="0.123" stop-color="#212121" stop-opacity="0.151"/>
<stop offset="0.308" stop-color="#353535" stop-opacity="0.227"/>
<stop offset="0.532" stop-color="#575757" stop-opacity="0.318"/>
<stop offset="0.783" stop-color="#858585" stop-opacity="0.421"/>
<stop offset="1" stop-color="#B3B3B3" stop-opacity="0.51"/>
</linearGradient>
<clipPath id="clip0_39_2918">
<rect width="71" height="21" fill="white"/>
</clipPath>
</defs>
</svg>
