<svg width="12" height="13" viewBox="0 0 12 13" fill="none" xmlns="http://www.w3.org/2000/svg">
<path d="M11.9735 8.18318C11.9592 8.08285 11.939 7.98457 11.9142 7.88853L11.9314 7.8863C11.9314 7.8863 10.9405 5.25943 10.7343 4.33189C10.5615 3.62991 10.057 3.07927 9.41568 2.82683C9.39934 2.76835 9.3858 2.71564 9.37569 2.67064C9.23594 2.10169 8.68492 1.72015 8.09244 1.80404C7.50004 1.88794 7.07655 2.40755 7.10019 2.99295C7.10495 3.06863 7.11112 3.16597 7.11812 3.27659C6.67651 3.69755 6.41643 4.29753 6.4424 4.93972C6.4435 4.95765 6.44465 4.97595 6.44575 4.99501H5.55414C5.55524 4.97595 5.55637 4.95765 5.55761 4.93972C5.58348 4.29751 5.32356 3.69755 4.88176 3.27659C4.88877 3.16599 4.89496 3.06863 4.89972 2.99295C4.92334 2.40755 4.49994 1.88794 3.90744 1.80404C3.31504 1.72013 2.76395 2.10169 2.62419 2.67064C2.61412 2.71566 2.60057 2.76835 2.58421 2.82683C1.94296 3.07925 1.43837 3.62991 1.26562 4.33189C1.05934 5.25943 0.0684983 7.8863 0.0684983 7.8863L0.085678 7.88853C0.0609279 7.98457 0.0407483 8.08285 0.0265451 8.18318C-0.178885 9.63331 0.830358 10.9756 2.28048 11.181C3.73061 11.3863 5.07283 10.3771 5.27816 8.92702C5.29237 8.8265 5.30019 8.72672 5.3031 8.62751L5.32028 8.63014C5.32028 8.63014 5.32485 8.55915 5.33289 8.43638H6.667C6.67504 8.55915 6.67961 8.63014 6.67961 8.63014L6.69681 8.62751C6.69972 8.72672 6.70755 8.8265 6.72175 8.92702C6.92711 10.3771 8.2693 11.3863 9.71943 11.181C11.1697 10.9756 12.1788 9.63331 11.9735 8.18318ZM4.40298 8.80315C4.26592 9.76972 3.37122 10.4427 2.40437 10.3058C1.43762 10.1688 0.764873 9.2738 0.901842 8.30726C1.03872 7.34051 1.93351 6.66767 2.90026 6.80461C3.86708 6.94161 4.53983 7.83622 4.40298 8.80315ZM9.59554 10.3058C8.62869 10.4427 7.73399 9.76972 7.59693 8.80315C7.46008 7.83622 8.1328 6.94161 9.09965 6.80461C10.0665 6.66767 10.9612 7.34049 11.0981 8.30726C11.235 9.27382 10.5623 10.1688 9.59554 10.3058Z" fill="#232323"/>
</svg>
