<svg width="71" height="21" viewBox="0 0 71 21" fill="none" xmlns="http://www.w3.org/2000/svg">
<g clip-path="url(#clip0_39_2905)">
<path d="M68.5572 21.1443H2.63682C1.1602 21.1443 0 19.9841 0 18.5075V2.68662C0 1.21 1.1602 0.0498047 2.63682 0.0498047H68.5572C70.0338 0.0498047 71.194 1.21 71.194 2.68662V18.5075C71.194 19.9841 70.0338 21.1443 68.5572 21.1443Z" fill="black"/>
<path d="M68.5572 0.471695C69.7701 0.471695 70.7721 1.47369 70.7721 2.68662V18.5075C70.7721 19.7205 69.7701 20.7224 68.5572 20.7224H2.63682C1.42388 20.7224 0.421891 19.7205 0.421891 18.5075V2.68662C0.421891 1.47369 1.42388 0.471695 2.63682 0.471695H68.5572ZM68.5572 0.0498047H2.63682C1.1602 0.0498047 0 1.26274 0 2.68662V18.5075C0 19.9841 1.1602 21.1443 2.63682 21.1443H68.5572C70.0338 21.1443 71.194 19.9841 71.194 18.5075V2.68662C71.194 1.26274 70.0338 0.0498047 68.5572 0.0498047Z" fill="#A6A6A6"/>
<path d="M24.9972 5.42877C24.9972 5.85067 24.8917 6.21982 24.628 6.4835C24.3116 6.79992 23.9425 6.95813 23.4678 6.95813C22.9932 6.95813 22.6241 6.79992 22.3076 6.4835C21.9912 6.16708 21.833 5.79793 21.833 5.3233C21.833 4.84868 21.9912 4.47952 22.3076 4.1631C22.6241 3.84669 22.9932 3.68848 23.4678 3.68848C23.6788 3.68848 23.8897 3.74121 24.1007 3.84669C24.3116 3.95216 24.4698 4.05763 24.5753 4.21584L24.3116 4.47952C24.1007 4.21584 23.837 4.11037 23.4678 4.11037C23.1514 4.11037 22.835 4.21584 22.6241 4.47952C22.3604 4.69047 22.2549 5.00688 22.2549 5.37604C22.2549 5.74519 22.3604 6.06161 22.6241 6.27256C22.8877 6.4835 23.1514 6.64171 23.4678 6.64171C23.837 6.64171 24.1007 6.53624 24.3644 6.27256C24.5226 6.11435 24.628 5.9034 24.628 5.63972H23.4678V5.21783H24.9972V5.42877ZM27.4231 4.11037H25.9992V5.11236H27.3176V5.48151H25.9992V6.4835H27.4231V6.90539H25.5773V3.74121H27.4231V4.11037ZM29.1634 6.90539H28.7415V4.11037H27.8449V3.74121H30.0599V4.11037H29.1634V6.90539ZM31.5892 6.90539V3.74121H32.0111V6.90539H31.5892ZM33.8042 6.90539H33.3823V4.11037H32.4857V3.74121H34.6479V4.11037H33.7514V6.90539H33.8042ZM38.8141 6.4835C38.4977 6.79992 38.1285 6.95813 37.6539 6.95813C37.1793 6.95813 36.8101 6.79992 36.4937 6.4835C36.1773 6.16708 36.0191 5.79793 36.0191 5.3233C36.0191 4.84868 36.1773 4.47952 36.4937 4.1631C36.8101 3.84669 37.1793 3.68848 37.6539 3.68848C38.1285 3.68848 38.4977 3.84669 38.8141 4.1631C39.1305 4.47952 39.2887 4.84868 39.2887 5.3233C39.2887 5.79793 39.1305 6.16708 38.8141 6.4835ZM36.8101 6.21982C37.0211 6.43076 37.3375 6.58897 37.6539 6.58897C37.9703 6.58897 38.2867 6.4835 38.4977 6.21982C38.7086 6.00887 38.8668 5.69246 38.8668 5.3233C38.8668 4.95415 38.7614 4.63773 38.4977 4.42678C38.2867 4.21584 37.9703 4.05763 37.6539 4.05763C37.3375 4.05763 37.0211 4.1631 36.8101 4.42678C36.5992 4.63773 36.441 4.95415 36.441 5.3233C36.441 5.69246 36.5464 6.00887 36.8101 6.21982ZM39.8688 6.90539V3.74121H40.3435L41.8728 6.21982V3.74121H42.2947V6.90539H41.8728L40.238 4.32131V6.90539H39.8688Z" fill="white" stroke="white" stroke-width="0.0608496" stroke-miterlimit="10"/>
<path d="M35.9136 11.5465C34.6479 11.5465 33.6459 12.4957 33.6459 13.8141C33.6459 15.0798 34.6479 16.0818 35.9136 16.0818C37.1793 16.0818 38.1813 15.1325 38.1813 13.8141C38.1813 12.443 37.1793 11.5465 35.9136 11.5465ZM35.9136 15.1325C35.228 15.1325 34.6479 14.5524 34.6479 13.7614C34.6479 12.9704 35.228 12.3903 35.9136 12.3903C36.5992 12.3903 37.1793 12.9176 37.1793 13.7614C37.1793 14.5524 36.5992 15.1325 35.9136 15.1325ZM31.0091 11.5465C29.7435 11.5465 28.7415 12.4957 28.7415 13.8141C28.7415 15.0798 29.7435 16.0818 31.0091 16.0818C32.2748 16.0818 33.2768 15.1325 33.2768 13.8141C33.2768 12.443 32.2748 11.5465 31.0091 11.5465ZM31.0091 15.1325C30.3236 15.1325 29.7435 14.5524 29.7435 13.7614C29.7435 12.9704 30.3236 12.3903 31.0091 12.3903C31.6947 12.3903 32.2748 12.9176 32.2748 13.7614C32.2748 14.5524 31.6947 15.1325 31.0091 15.1325ZM25.1554 12.232V13.1813H27.4231C27.3703 13.7087 27.1594 14.1306 26.8957 14.3942C26.5793 14.7107 26.0519 15.0798 25.1554 15.0798C23.7315 15.0798 22.6768 13.9723 22.6768 12.5485C22.6768 11.1246 23.7843 10.0171 25.1554 10.0171C25.8937 10.0171 26.4738 10.3335 26.8957 10.7027L27.5813 10.0171C27.0012 9.48976 26.2629 9.06787 25.2081 9.06787C23.3096 9.06787 21.6748 10.65 21.6748 12.5485C21.6748 14.447 23.3096 16.0291 25.2081 16.0291C26.2629 16.0291 27.0012 15.7126 27.634 15.0271C28.2668 14.3942 28.4778 13.4977 28.4778 12.8121C28.4778 12.6012 28.4778 12.3903 28.4251 12.232H25.1554ZM49.0977 12.9704C48.8867 12.443 48.3594 11.5465 47.1992 11.5465C46.039 11.5465 45.0897 12.443 45.0897 13.8141C45.0897 15.0798 46.039 16.0818 47.3047 16.0818C48.3066 16.0818 48.9395 15.449 49.1504 15.0798L48.4121 14.5524C48.1484 14.9216 47.832 15.1853 47.3047 15.1853C46.7773 15.1853 46.4609 14.9743 46.1972 14.4997L49.2032 13.234L49.0977 12.9704ZM46.039 13.7087C46.039 12.8649 46.7246 12.3903 47.1992 12.3903C47.5683 12.3903 47.9375 12.6012 48.043 12.8649L46.039 13.7087ZM43.5604 15.8709H44.5624V9.27882H43.5604V15.8709ZM41.9783 12.0211C41.7146 11.7574 41.2927 11.4937 40.7654 11.4937C39.6579 11.4937 38.6032 12.4957 38.6032 13.7614C38.6032 15.0271 39.6052 15.9763 40.7654 15.9763C41.2927 15.9763 41.7146 15.7126 41.9256 15.449H41.9783V15.7654C41.9783 16.6092 41.5037 17.0838 40.7654 17.0838C40.1853 17.0838 39.7634 16.6619 39.6579 16.2927L38.8141 16.6619C39.0778 17.242 39.7106 17.9803 40.8181 17.9803C41.9783 17.9803 42.9275 17.2947 42.9275 15.6599V11.652H41.9783V12.0211ZM40.8181 15.1325C40.1325 15.1325 39.5524 14.5524 39.5524 13.7614C39.5524 12.9704 40.1325 12.3903 40.8181 12.3903C41.5037 12.3903 42.031 12.9704 42.031 13.7614C42.031 14.5524 41.5037 15.1325 40.8181 15.1325ZM53.6858 9.27882H51.3126V15.8709H52.3146V13.3922H53.6858C54.7932 13.3922 55.8479 12.6012 55.8479 11.3355C55.8479 10.0699 54.7932 9.27882 53.6858 9.27882ZM53.7385 12.443H52.3146V10.1753H53.7385C54.4768 10.1753 54.8987 10.8082 54.8987 11.2828C54.8459 11.8629 54.4241 12.443 53.7385 12.443ZM59.8032 11.4937C59.0649 11.4937 58.3265 11.8102 58.0629 12.4957L58.9594 12.8649C59.1703 12.4957 59.4867 12.3903 59.8559 12.3903C60.3833 12.3903 60.8579 12.7067 60.9106 13.234V13.2868C60.7524 13.1813 60.3305 13.0231 59.9086 13.0231C58.9594 13.0231 58.0101 13.5505 58.0101 14.4997C58.0101 15.3962 58.8012 15.9763 59.645 15.9763C60.3305 15.9763 60.6469 15.6599 60.9106 15.3435H60.9634V15.8709H61.9126V13.3395C61.8071 12.1793 60.9106 11.4937 59.8032 11.4937ZM59.6977 15.1325C59.3813 15.1325 58.9066 14.9743 58.9066 14.5524C58.9066 14.0251 59.4867 13.8669 59.9614 13.8669C60.3833 13.8669 60.5942 13.9723 60.8579 14.0778C60.7524 14.7107 60.2251 15.1325 59.6977 15.1325ZM65.235 11.652L64.1275 14.4997H64.0748L62.9146 11.652H61.8599L63.6002 15.6599L62.5982 17.8748H63.6002L66.2897 11.652H65.235ZM56.3753 15.8709H57.3773V9.27882H56.3753V15.8709Z" fill="white"/>
<path d="M5.48463 4.00488C5.32642 4.16309 5.27368 4.42677 5.27368 4.74319V16.3979C5.27368 16.7143 5.37915 16.978 5.53736 17.1362L5.5901 17.189L12.1294 10.6497V10.5442L5.48463 4.00488Z" fill="url(#paint0_linear_39_2905)"/>
<path d="M14.2388 12.8649L12.0767 10.7027V10.5445L14.2388 8.38232L14.2916 8.43506L16.8757 9.91168C17.614 10.3336 17.614 11.0191 16.8757 11.441L14.2388 12.8649Z" fill="url(#paint1_linear_39_2905)"/>
<path d="M14.2916 12.8121L12.0767 10.5972L5.48462 17.1892C5.7483 17.4529 6.11746 17.4529 6.59208 17.2419L14.2916 12.8121Z" fill="url(#paint2_linear_39_2905)"/>
<path d="M14.2916 8.3825L6.59208 4.00539C6.11746 3.74171 5.7483 3.79444 5.48462 4.05813L12.0767 10.5974L14.2916 8.3825Z" fill="url(#paint3_linear_39_2905)"/>
<path opacity="0.2" d="M14.2388 12.7588L6.59208 17.0832C6.17019 17.3468 5.80104 17.2941 5.53736 17.0832L5.48462 17.1359L5.53736 17.1886C5.80104 17.3996 6.17019 17.4523 6.59208 17.1886L14.2388 12.7588Z" fill="black"/>
<path opacity="0.12" d="M5.48463 17.0837C5.32642 16.9255 5.27368 16.6618 5.27368 16.3454V16.3982C5.27368 16.7146 5.37915 16.9783 5.53736 17.1365V17.0837H5.48463ZM16.8757 11.2827L14.2389 12.7594L14.2916 12.8121L16.8757 11.3355C17.2448 11.1245 17.403 10.8608 17.403 10.5972C17.403 10.8608 17.1921 11.0718 16.8757 11.2827Z" fill="black"/>
<path opacity="0.25" d="M6.59209 4.05764L16.8757 9.91137C17.1921 10.1223 17.403 10.3333 17.403 10.5969C17.403 10.3333 17.2448 10.0696 16.8757 9.85864L6.59209 4.00491C5.85378 3.58302 5.27368 3.89943 5.27368 4.74321V4.79595C5.27368 4.00491 5.85378 3.63575 6.59209 4.05764Z" fill="white"/>
</g>
<defs>
<linearGradient id="paint0_linear_39_2905" x1="11.4966" y1="4.64299" x2="2.64583" y2="13.4932" gradientUnits="userSpaceOnUse">
<stop stop-color="#00A0FF"/>
<stop offset="0.007" stop-color="#00A1FF"/>
<stop offset="0.26" stop-color="#00BEFF"/>
<stop offset="0.512" stop-color="#00D2FF"/>
<stop offset="0.76" stop-color="#00DFFF"/>
<stop offset="1" stop-color="#00E3FF"/>
</linearGradient>
<linearGradient id="paint1_linear_39_2905" x1="17.8428" y1="10.5978" x2="5.08224" y2="10.5978" gradientUnits="userSpaceOnUse">
<stop stop-color="#FFE000"/>
<stop offset="0.409" stop-color="#FFBD00"/>
<stop offset="0.775" stop-color="#FFA500"/>
<stop offset="1" stop-color="#FF9C00"/>
</linearGradient>
<linearGradient id="paint2_linear_39_2905" x1="13.0929" y1="11.808" x2="1.09116" y2="23.8097" gradientUnits="userSpaceOnUse">
<stop stop-color="#FF3A44"/>
<stop offset="1" stop-color="#C31162"/>
</linearGradient>
<linearGradient id="paint3_linear_39_2905" x1="3.84821" y1="0.142981" x2="9.2078" y2="5.50257" gradientUnits="userSpaceOnUse">
<stop stop-color="#32A071"/>
<stop offset="0.069" stop-color="#2DA771"/>
<stop offset="0.476" stop-color="#15CF74"/>
<stop offset="0.801" stop-color="#06E775"/>
<stop offset="1" stop-color="#00F076"/>
</linearGradient>
<clipPath id="clip0_39_2905">
<rect width="71" height="21" fill="white"/>
</clipPath>
</defs>
</svg>
