<svg width="129" height="64" viewBox="0 0 129 64" fill="none" xmlns="http://www.w3.org/2000/svg">
<path d="M3.00875 62.8762C1.76879 62.8762 0.759474 61.8833 0.803122 60.6602C1.33771 45.6803 7.27851 31.3522 17.5942 20.2856C27.9099 9.21914 41.8824 2.18453 56.9625 0.413235C58.1938 0.268611 59.2801 1.17881 59.3832 2.39843C59.4863 3.61804 58.5671 4.68491 57.3362 4.83278C43.3786 6.50953 30.4517 13.038 20.8987 23.2864C11.3456 33.5348 5.82886 46.7924 5.29641 60.6603C5.24945 61.8833 4.24871 62.8762 3.00875 62.8762Z" fill="#03DB03"/>
<path d="M107.716 19.7116C108.588 18.8411 110.013 18.8302 110.863 19.7206C116.027 25.125 120.179 31.3895 123.129 38.2234C123.615 39.3494 123.034 40.6335 121.877 41.0732C120.72 41.5129 119.425 40.9415 118.936 39.8168C116.219 33.568 112.418 27.8346 107.705 22.8749C106.857 21.9823 106.845 20.5821 107.716 19.7116Z" fill="#03DB03"/>
<path d="M123.334 45.2586C124.521 44.9033 125.779 45.5638 126.096 46.7468C127.345 51.3905 128.05 56.16 128.198 60.9621C128.235 62.1854 127.221 63.1731 125.981 63.1672C124.741 63.1613 123.746 62.1641 123.704 60.941C123.558 56.5819 122.918 52.2527 121.797 48.0341C121.482 46.8504 122.148 45.6139 123.334 45.2586Z" fill="#03DB03"/>
<path d="M64.1876 2.18902C64.1814 0.965187 65.1822 -0.0359716 66.4215 0.000991738C79.8742 0.402201 92.8555 4.99813 103.499 13.1281C104.48 13.8771 104.608 15.2779 103.815 16.2188C103.022 17.1597 101.609 17.2842 100.626 16.5378C90.7974 9.07177 78.8397 4.83822 66.4439 4.43585C65.2046 4.39562 64.1938 3.41286 64.1876 2.18902Z" fill="#03DB03"/>
<path d="M84.1299 42.0009C84.3678 44.5797 82.4427 46.8658 79.8299 47.1069C77.2171 47.348 74.9061 45.4529 74.6681 42.8741C74.4302 40.2952 76.3553 38.0092 78.9681 37.7681C81.5809 37.527 83.8919 39.4221 84.1299 42.0009Z" fill="#03DB03"/>
<path d="M98.5344 23.1028L78.4557 40.1699L81.7976 42.5784L98.5344 23.1028Z" fill="#03DB03"/>
</svg>
