<svg width="24" height="24" viewBox="0 0 24 24" fill="none" xmlns="http://www.w3.org/2000/svg">
<path fill-rule="evenodd" clip-rule="evenodd" d="M6.36218 6.79028C5.73569 6.79028 5.13486 7.03915 4.69187 7.48215C4.24887 7.92514 4 8.52597 4 9.15246V16.8832C4 17.5097 4.24887 18.1106 4.69187 18.5535C5.13486 18.9965 5.73569 19.2454 6.36218 19.2454H18.3878C19.0143 19.2454 19.6151 18.9965 20.0581 18.5535C20.5011 18.1106 20.75 17.5097 20.75 16.8832V9.15246C20.75 8.52597 20.5011 7.92514 20.0581 7.48215C19.6151 7.03915 19.0143 6.79028 18.3878 6.79028H6.36218ZM16.2404 11.9441C15.9556 11.9441 15.6825 12.0573 15.4812 12.2586C15.2798 12.46 15.1667 12.7331 15.1667 13.0178C15.1667 13.3026 15.2798 13.5757 15.4812 13.7771C15.6825 13.9784 15.9556 14.0916 16.2404 14.0916C16.5252 14.0916 16.7983 13.9784 16.9996 13.7771C17.201 13.5757 17.3141 13.3026 17.3141 13.0178C17.3141 12.7331 17.201 12.46 16.9996 12.2586C16.7983 12.0573 16.5252 11.9441 16.2404 11.9441Z" fill="white"/>
<path d="M16.2275 4.05793C16.4818 3.99016 16.7483 3.98173 17.0064 4.03329C17.2645 4.08485 17.5073 4.19503 17.7161 4.35532C17.9249 4.5156 18.094 4.72172 18.2105 4.95775C18.327 5.19378 18.3876 5.45341 18.3878 5.71661H9.7981L16.2275 4.05793Z" fill="white"/>
</svg>
